<svg width="181" height="50" viewBox="0 0 181 50" fill="none" xmlns="http://www.w3.org/2000/svg">
<path d="M71.6378 25.5648C71.6378 21.2395 71.6422 16.9146 71.6294 12.5892C71.6294 12.2443 71.7258 12.1676 72.0571 12.168C77.1362 12.1784 82.2152 12.1784 87.2941 12.168C87.619 12.168 87.713 12.2435 87.7021 12.5736C87.676 13.3767 87.6776 14.1799 87.7021 14.983C87.7118 15.3071 87.625 15.393 87.2957 15.3918C83.4773 15.3792 79.6587 15.3768 75.8399 15.3846C75.2327 15.3846 75.2986 15.3316 75.2982 15.9142C75.2963 18.2996 75.2963 20.6847 75.2982 23.0695C75.2982 23.569 75.2982 23.5698 75.7865 23.5698C79.1726 23.5698 82.5587 23.5751 85.9464 23.5614C86.2942 23.5614 86.3809 23.6622 86.3709 23.9951C86.3472 24.7609 86.3512 25.5275 86.3709 26.2933C86.3785 26.6089 86.2906 26.7117 85.9565 26.7101C82.6077 26.6969 79.2586 26.7009 75.9098 26.7033C75.3251 26.7033 75.3661 26.6194 75.3661 27.2302C75.3661 30.9869 75.3605 34.7436 75.3729 38.5003C75.3729 38.8678 75.285 38.9942 74.8998 38.9822C73.9493 38.9545 72.9968 38.9601 72.0458 38.9822C71.7282 38.989 71.6326 38.9139 71.6338 38.5786C71.6435 34.2406 71.6448 29.9026 71.6378 25.5648Z" fill="#058ED8"/>
<path d="M91.703 12.877C91.7408 12.4963 91.6765 12.1019 91.8733 11.7377C92.0805 11.3546 92.3736 11.0815 92.7419 10.8438C93.1322 10.5924 93.5326 10.4699 93.9816 10.4984C94.61 10.5386 95.116 10.7751 95.6083 11.2213C96.291 11.8409 96.3195 12.5762 96.2477 13.3564C96.1806 14.0877 95.679 14.5668 95.1184 14.9748C94.5161 15.4121 93.8209 15.2623 93.1744 15.1812C92.8784 15.1442 92.5551 14.9121 92.301 14.6728C91.7809 14.1809 91.6733 13.5528 91.703 12.877Z" fill="#058ED8"/>
<path d="M124.378 25.7924V13.1517C124.378 12.5329 124.429 12.4766 125.061 12.4212C125.332 12.3975 125.623 12.4365 125.87 12.3505C126.923 11.9855 128.02 12.1156 129.093 11.9988C130.387 11.8574 131.678 11.8907 132.968 11.9301C133.958 11.9561 134.944 12.0617 135.917 12.2457C136.357 12.3317 136.849 12.3991 137.245 12.7144C137.423 12.8561 137.704 12.8095 137.939 12.8907C138.652 13.1364 139.296 13.5027 139.947 13.8653C140.424 14.1307 140.824 14.4909 141.211 14.86C141.493 15.1278 141.714 15.4595 141.955 15.7679C142.411 16.3506 142.627 17.0493 142.912 17.718C143.306 18.644 143.261 19.6134 143.29 20.5824C143.314 21.3731 143.219 22.1509 143.089 22.9236C143.04 23.2183 142.873 23.4934 142.759 23.7769C142.509 24.3981 142.223 25.0109 141.795 25.5221C141.426 25.9639 141.042 26.3936 140.561 26.7485C139.996 27.1597 139.39 27.5115 138.753 27.7982C138.224 28.0432 137.688 28.1709 137.143 28.3295C136.658 28.4701 136.154 28.5448 135.691 28.7014C135.094 28.9022 134.493 28.9355 133.894 28.9913C132.147 29.1544 130.391 29.1395 128.637 29.1158C128.312 29.1114 128.2 29.1845 128.202 29.5383C128.217 32.5529 128.211 35.5679 128.211 38.5829C128.211 39.123 128.209 39.1242 127.682 39.1246H124.975C124.378 39.1246 124.378 39.1246 124.378 38.5066V25.7924ZM128.21 20.5635C128.21 22.1815 128.22 23.7998 128.202 25.4173C128.198 25.7647 128.306 25.841 128.635 25.837C130.468 25.8141 132.305 25.8964 134.132 25.6691C134.744 25.5932 135.377 25.5458 135.93 25.2511C136.111 25.1543 136.299 25.1997 136.476 25.0884C136.897 24.8238 137.35 24.6294 137.747 24.2989C138.188 23.9315 138.587 23.5123 138.816 23.0324C139.06 22.5236 139.339 21.9883 139.298 21.3546C139.261 20.7543 139.323 20.1455 139.278 19.5415C139.257 19.2484 139.218 18.9765 139.094 18.6785C138.838 18.0669 138.504 17.5614 138.065 17.063C137.677 16.6213 137.19 16.3735 136.74 16.0591C136.33 15.7736 135.794 15.686 135.319 15.5587C134.551 15.3527 133.733 15.27 132.933 15.2547C131.471 15.2266 130.005 15.1443 128.543 15.3411C128.271 15.378 128.2 15.4394 128.202 15.7077C128.216 17.3256 128.21 18.944 128.21 20.5635Z" fill="#058ED8"/>
<path d="M170.942 39.475C170.172 39.5448 169.396 39.4782 168.649 39.2782C167.966 39.0919 167.284 38.8802 166.655 38.4911C166.309 38.2771 165.921 38.096 165.577 37.8627C165.293 37.6703 165.038 37.4306 164.785 37.1964C164.542 36.9787 164.314 36.745 164.103 36.4969C163.83 36.1668 163.561 35.8375 163.334 35.4653C162.999 34.917 162.707 34.3439 162.46 33.7509C162.247 33.2357 162.039 32.7157 161.933 32.1503C161.849 31.7021 161.893 31.2371 161.763 30.8134C161.431 29.7376 161.551 28.6389 161.636 27.5675C161.696 26.8001 161.853 26.0158 162.057 25.2508C162.183 24.779 162.378 24.3296 162.552 23.8919C162.732 23.4389 163.012 22.992 163.282 22.5599C163.514 22.1889 163.773 21.829 164.03 21.4869C164.425 20.9592 164.942 20.5155 165.497 20.1416C165.93 19.845 166.38 19.573 166.843 19.3268C167.389 19.0429 167.972 18.9 168.541 18.698C169.519 18.351 170.52 18.3494 171.53 18.3538C172.021 18.3562 172.537 18.398 172.979 18.5333C173.727 18.763 174.514 18.906 175.215 19.3015C175.885 19.6794 176.494 20.1252 177.103 20.5962C177.785 21.1263 178.271 21.7809 178.726 22.4876C179.177 23.1807 179.535 23.9309 179.788 24.7184C180.034 25.4902 180.287 26.2395 180.395 27.0575C180.537 28.1418 180.501 29.2204 180.469 30.2994C180.455 30.7709 180.442 31.2781 180.293 31.7126C180.144 32.1471 180.085 32.6097 179.851 33.0225C179.673 33.3369 179.614 33.7148 179.494 34.0614C179.384 34.3774 179.185 34.6332 179.057 34.9332C178.784 35.5725 178.306 36.0845 177.885 36.6198C177.661 36.9073 177.398 37.1624 177.104 37.378C176.64 37.7125 176.214 38.0968 175.708 38.3759C175.201 38.655 174.644 38.8329 174.136 39.1168C173.908 39.2441 173.599 39.23 173.327 39.2979C172.571 39.487 171.796 39.5031 170.942 39.475ZM176.653 28.969C176.613 28.2261 176.717 27.478 176.538 26.7335C176.475 26.472 176.297 26.2632 176.29 25.9861C176.273 25.3436 175.946 24.8043 175.647 24.2654C175.403 23.8101 175.096 23.3911 174.736 23.0205C174.535 22.8197 174.26 22.7583 174.106 22.5418C173.817 22.1342 173.337 22.0146 172.933 21.8592C172.175 21.57 171.344 21.6226 170.535 21.6528C170.097 21.6692 169.658 21.662 169.236 21.823C168.959 21.9294 168.712 22.0929 168.433 22.2033C167.791 22.4571 167.329 22.9771 166.903 23.4807C166.627 23.8076 166.429 24.2361 166.206 24.6236C165.828 25.2806 165.722 26.0167 165.499 26.7118C165.332 27.2314 165.37 27.8261 165.338 28.3847C165.272 29.5493 165.335 30.7139 165.68 31.8475C165.793 32.2133 165.801 32.6547 166.019 32.9317C166.293 33.2803 166.436 33.6947 166.653 34.0561C167.066 34.7489 167.674 35.2038 168.266 35.6508C168.816 36.066 169.537 36.2877 170.237 36.3262C171.108 36.374 171.977 36.4371 172.847 36.0451C173.414 35.7889 173.926 35.5412 174.422 35.142C175.16 34.5481 175.593 33.7915 175.997 32.9868C176.157 32.6655 176.174 32.2828 176.314 31.966C176.575 31.3776 176.635 30.7729 176.651 30.1521C176.662 29.7597 176.653 29.3642 176.653 28.969Z" fill="#058ED8"/>
<path d="M102.026 29.1911V20.0352C102.026 19.473 102.03 19.4862 102.56 19.3545C103.248 19.1847 103.945 19.0505 104.635 18.9076C105.308 18.7682 106.04 18.798 106.706 18.6554C108.145 18.3466 109.58 18.5112 111.013 18.504C111.663 18.5008 112.31 18.757 112.965 18.8253C113.527 18.8827 113.997 19.1465 114.465 19.3919C115.274 19.8188 115.981 20.3705 116.543 21.1263C116.97 21.7021 117.277 22.3161 117.543 22.9699C117.981 24.0465 117.944 25.193 118.115 26.3122C118.424 28.3441 118.215 30.3733 118.265 32.4016C118.315 34.4392 118.262 36.4792 118.287 38.5176C118.293 38.9192 118.156 38.9882 117.808 38.9814C116.882 38.9641 115.954 38.9605 115.028 38.9814C114.684 38.9902 114.574 38.916 114.576 38.5445C114.592 35.1464 114.57 31.7483 114.594 28.3502C114.601 27.3864 114.519 26.4335 114.404 25.4862C114.315 24.7627 114.083 24.0643 113.722 23.4313C113.388 22.8554 112.822 22.4507 112.188 22.1238C111.545 21.7913 110.889 21.7102 110.21 21.6845C109.458 21.6559 108.697 21.6311 107.951 21.7082C107.366 21.7692 106.779 21.7933 106.196 21.8555C105.707 21.9077 105.548 22.1154 105.548 22.6161C105.548 27.9292 105.551 33.2424 105.556 38.5557C105.556 38.8999 105.462 38.9886 105.129 38.981C104.215 38.9593 103.3 38.9609 102.386 38.981C102.086 38.9874 102.02 38.8911 102.021 38.6063C102.03 35.4681 102.026 32.3298 102.026 29.1911Z" fill="#058ED8"/>
<path d="M147.782 29.3131C147.782 26.2483 147.786 23.1835 147.775 20.1171C147.775 19.8565 147.855 19.6709 148.087 19.6456C148.581 19.5918 149.019 19.3569 149.464 19.1951C150.095 18.9658 150.77 19.0087 151.379 18.7465C151.403 18.7407 151.427 18.7376 151.452 18.7373C153.296 18.4522 155.152 18.3718 157.007 18.5409C157.596 18.5947 158.166 18.8437 158.774 18.8911C159.124 18.918 159.267 19.2328 159.112 19.6284C158.951 20.0332 159.024 20.4669 158.869 20.8732C158.724 21.2491 158.587 21.6398 158.613 22.0619C158.622 22.2197 158.479 22.19 158.395 22.1611C156.72 21.5824 154.986 21.5724 153.255 21.7194C152.881 21.7507 152.408 21.674 152.064 22.0121C151.99 22.0848 151.802 22.0523 151.667 22.0523C151.392 22.0523 151.284 22.1623 151.291 22.4558C151.31 23.3453 151.298 24.2352 151.298 25.1251C151.298 29.5986 151.292 34.0721 151.307 38.5457C151.307 38.9143 151.204 38.9934 150.856 38.9834C149.979 38.9566 149.102 38.9566 148.224 38.9834C147.877 38.993 147.769 38.9159 147.771 38.5453C147.789 35.4672 147.782 32.39 147.782 29.3131Z" fill="#058ED8"/>
<path d="M95.7567 28.9432C95.7567 32.1558 95.7511 35.366 95.7659 38.5774C95.7659 38.9151 95.6683 38.987 95.3539 38.9789C94.4154 38.9597 93.4765 38.9641 92.5381 38.9761C92.1891 38.9805 92.0622 38.885 92.063 38.4942C92.0777 32.109 92.0777 25.7239 92.063 19.3392C92.063 18.9577 92.1798 18.8505 92.5425 18.8573C93.4806 18.8754 94.4203 18.8806 95.3579 18.8541C95.7009 18.8441 95.7619 18.9625 95.7595 19.2717C95.7515 22.496 95.7567 25.7198 95.7567 28.9432Z" fill="#058ED8"/>
<path d="M33.0616 8.89746C33.16 8.75008 33.3134 8.65249 33.4371 8.53363C33.5761 8.39991 33.6841 8.22643 33.8628 8.12764C33.9861 8.05938 34.0688 7.92284 34.1515 7.82124C34.262 7.68551 34.4029 7.58271 34.5198 7.46224C34.6491 7.32931 34.7856 7.18836 34.9214 7.05825C35.0571 6.92814 35.2 6.80366 35.3177 6.65106C35.4195 6.52922 35.5344 6.41893 35.6603 6.32217C35.8016 6.20532 35.9233 6.06195 36.0574 5.93344C36.2148 5.78245 36.3385 5.60014 36.5253 5.47405C36.6365 5.39815 36.7136 5.27647 36.8007 5.17969C37.0055 4.9516 37.2372 4.75081 37.4485 4.53115C37.5766 4.39783 37.7296 4.26531 37.8501 4.12958C38.0424 3.91675 38.256 3.72239 38.4524 3.51638C38.5841 3.37864 38.7094 3.22123 38.8769 3.10838C39.001 3.02526 39.0777 2.88149 39.1925 2.77548C39.3443 2.63332 39.4997 2.48996 39.6387 2.34017C39.772 2.19761 39.9274 2.07513 40.0503 1.91812C40.1623 1.77516 40.3157 1.66232 40.4366 1.51976C40.5508 1.38604 40.675 1.26119 40.8081 1.14629C40.9424 1.02719 41.0699 0.900627 41.19 0.767211C41.298 0.650353 41.5012 0.710588 41.614 0.866398C41.7482 1.05152 41.9309 1.18766 42.0863 1.34829C42.2871 1.5559 42.4879 1.76472 42.6887 1.96992C42.8236 2.10686 42.9629 2.24821 43.1071 2.38033C43.3103 2.56746 43.5231 2.75218 43.6966 2.96341C43.8219 3.11601 43.9777 3.23487 44.1046 3.38386C44.2604 3.56617 44.4624 3.71636 44.6138 3.90831C44.6788 3.98975 44.7529 4.06345 44.8347 4.12797C45.0254 4.28057 45.1764 4.48015 45.3567 4.63877C45.5047 4.76464 45.6438 4.90071 45.7728 5.04597C45.9603 5.26443 46.18 5.44754 46.3727 5.65676C46.4964 5.79129 46.6289 5.9198 46.7594 6.0483C46.9201 6.20572 47.0968 6.34466 47.2293 6.53019C47.3133 6.64616 47.4178 6.74578 47.5377 6.82414C47.7015 6.93297 47.808 7.10203 47.961 7.22571C48.1284 7.36144 48.2525 7.54697 48.4264 7.6835C48.5762 7.80116 48.6416 7.99673 48.8115 8.11158C49.0071 8.24369 49.1428 8.45332 49.3199 8.60431C49.646 8.88179 49.8717 9.25366 50.2327 9.50384C50.374 9.60182 50.5013 9.79056 50.6395 9.91223C50.8282 10.0781 50.9788 10.2777 51.1459 10.4556C51.3206 10.6415 51.5314 10.7853 51.702 10.9776C51.8302 11.1229 51.9694 11.2581 52.1185 11.382C52.2871 11.5213 52.4104 11.7161 52.5739 11.8735C52.7642 12.057 52.9823 12.2112 53.1542 12.4112C53.2778 12.555 53.4353 12.6674 53.5449 12.8184C53.718 13.0549 53.9312 13.2501 54.1497 13.4376C54.3103 13.5762 54.4368 13.7537 54.603 13.8754C54.8143 14.0296 54.9516 14.246 55.1207 14.4295C55.2897 14.613 55.4945 14.7753 55.6749 14.9492C55.9495 15.2146 56.1905 15.5114 56.468 15.7744C56.7764 16.0671 57.0988 16.3494 57.3795 16.6795C57.6175 16.9657 57.8869 17.224 58.1827 17.4498C58.3413 17.5714 58.4808 17.7163 58.5963 17.8794C58.7361 18.0754 58.9549 18.2164 59.1015 18.4015C59.2621 18.6055 59.4758 18.7448 59.6533 18.9235C59.9219 19.1922 60.1649 19.4857 60.442 19.7496C60.6488 19.9455 60.8994 20.103 61.0624 20.3636C61.1504 20.5045 61.3082 20.6378 61.4556 20.7559C61.6029 20.874 61.7198 21.0157 61.8543 21.1446C62.08 21.3607 62.2864 21.5956 62.5145 21.8112C62.6555 21.9442 62.7924 22.0944 62.9301 22.2337C63.0679 22.373 63.1759 22.5353 63.3454 22.6353C63.4695 22.7092 63.5462 22.8361 63.6385 22.9369C63.9381 23.2605 64.2622 23.5605 64.569 23.8757C64.7698 24.0797 64.9633 24.293 65.1838 24.4813C65.3364 24.6118 65.4649 24.772 65.6372 24.8881C65.6515 24.8968 65.6636 24.9088 65.6725 24.923C65.6814 24.9372 65.6868 24.9533 65.6884 24.97C65.6899 24.9867 65.6875 25.0035 65.6815 25.0191C65.6754 25.0348 65.6657 25.0487 65.6532 25.06C65.3432 25.3101 65.091 25.6182 64.8039 25.8928C64.5714 26.1161 64.3409 26.3474 64.1184 26.5839C63.9236 26.7911 63.7148 26.9931 63.5008 27.1863C63.3618 27.312 63.2313 27.4786 63.0928 27.6055C62.8563 27.8228 62.6511 28.0706 62.4173 28.2882C62.2969 28.4007 62.1595 28.5043 62.0559 28.6472C61.945 28.7877 61.8182 28.9149 61.678 29.0263C61.5363 29.1468 61.4371 29.297 61.3005 29.4174C61.1399 29.5588 60.9957 29.7122 60.8504 29.8672C60.7196 30.0104 60.5798 30.1452 60.4319 30.2708C60.1826 30.4752 59.9765 30.7221 59.7537 30.9462C59.544 31.1571 59.3055 31.3434 59.1204 31.5887C58.9353 31.8341 58.6891 32.0305 58.4698 32.2493C58.3413 32.3782 58.2289 32.5264 58.0819 32.6324C57.8189 32.8236 57.6446 33.1003 57.3948 33.3043C57.2743 33.403 57.1707 33.5295 57.0567 33.6412C56.9077 33.7873 56.7816 33.9536 56.6021 34.0709C56.4848 34.1472 56.4073 34.2765 56.3093 34.3777C56.0395 34.6568 55.7556 34.921 55.4865 35.1989C55.3014 35.3904 55.1106 35.5828 54.9243 35.7768C54.6834 36.0309 54.4368 36.2855 54.1685 36.5164C53.971 36.6867 53.8115 36.9012 53.6276 37.0887C53.471 37.2493 53.3019 37.3959 53.1417 37.5521C52.9582 37.7312 52.7803 37.9135 52.5972 38.0954C52.4305 38.2621 52.2606 38.4251 52.0988 38.5962C51.9888 38.7122 51.8667 38.8167 51.7591 38.9327C51.5326 39.1769 51.2896 39.4038 51.0543 39.6391C50.9338 39.7595 50.8222 39.8893 50.7029 40.0113C50.5499 40.1679 50.3977 40.3262 50.2371 40.4748C50.0363 40.6603 49.8452 40.8554 49.658 41.0554C49.5086 41.2161 49.3484 41.3646 49.1934 41.5192C49.0002 41.7128 48.8111 41.9104 48.6135 42.0995C48.4601 42.2469 48.3079 42.3943 48.163 42.5505C47.9955 42.7308 47.81 42.8942 47.6349 43.0677C47.4598 43.2412 47.2799 43.4267 47.1024 43.6066C46.9787 43.7319 46.8643 43.8688 46.7289 43.9805C46.4795 44.1865 46.3004 44.4624 46.0382 44.6563C45.9153 44.7475 45.8141 44.8692 45.7049 44.9776C45.362 45.3129 45.0407 45.6687 44.6889 45.9976C44.4668 46.2048 44.26 46.4393 44.0408 46.6562C43.8215 46.873 43.5958 47.1031 43.3725 47.3224C43.1063 47.5838 42.8264 47.8408 42.5883 48.1384C42.4443 48.3088 42.2847 48.4655 42.1116 48.6062C41.9611 48.732 41.8225 48.8714 41.6976 49.0226C41.6152 49.1242 41.4755 49.1624 41.4165 49.2921C41.4004 49.3266 41.3289 49.3391 41.2908 49.3013C41.0715 49.0845 40.8567 48.8636 40.639 48.6456C40.3713 48.3778 40.1026 48.1101 39.833 47.8424C39.5652 47.575 39.311 47.2923 39.0263 47.0433C38.6865 46.7449 38.4219 46.3755 38.0625 46.0924C37.8862 45.9542 37.7256 45.7623 37.5774 45.5739C37.436 45.3944 37.2718 45.2153 37.0802 45.0977C36.9296 45.0053 36.8393 44.8639 36.7224 44.7543C36.5024 44.5491 36.304 44.315 36.0871 44.1018C35.7345 43.7552 35.3988 43.3914 35.0338 43.0577C34.7904 42.836 34.5784 42.5842 34.3367 42.3601C34.0788 42.1216 33.8182 41.8722 33.5986 41.5859C33.4584 41.404 33.2472 41.2763 33.0677 41.1249C33.1239 41.0506 33.1649 40.9494 33.2395 40.9056C33.4102 40.8056 33.4966 40.6334 33.6315 40.5041C33.8515 40.2932 34.0463 40.0527 34.284 39.866C34.4447 39.7395 34.5772 39.5849 34.7202 39.4471C34.8631 39.3094 34.9964 39.152 35.1386 39.009C35.3394 38.8082 35.5522 38.6219 35.751 38.4227C35.9771 38.1966 36.2024 37.9665 36.4184 37.7288C36.6505 37.473 36.9333 37.2678 37.1501 36.9963C37.1818 36.9562 37.2156 36.8883 37.2931 36.9208C37.3131 37.0116 37.3388 37.0903 37.4344 37.1425C37.5693 37.216 37.6585 37.3433 37.7513 37.4638C37.8327 37.5764 37.933 37.6742 38.0476 37.7529C38.3006 37.9155 38.4661 38.1661 38.6817 38.3649C38.8195 38.4918 38.954 38.646 39.0885 38.7817C39.2893 38.9825 39.5078 39.1769 39.7029 39.3841C39.927 39.6202 40.1712 39.8362 40.3904 40.0776C40.494 40.1916 40.588 40.3262 40.7185 40.4145C40.8553 40.5124 40.9739 40.6333 41.0691 40.7719C41.243 41.0104 41.4675 41.0036 41.6446 40.7635C41.767 40.6085 41.9012 40.4632 42.0461 40.329C42.159 40.2169 42.312 40.1358 42.3955 40.0077C42.5059 39.8375 42.673 39.7266 42.8035 39.5829C42.924 39.452 43.0412 39.311 43.1754 39.1893C43.3095 39.0676 43.4276 38.9239 43.5645 38.8159C43.7155 38.6905 43.857 38.5541 43.9878 38.4079C44.1203 38.2673 44.2761 38.1444 44.3958 37.9834C44.511 37.8346 44.6432 37.6999 44.7897 37.5818C44.9299 37.4658 45.0343 37.3096 45.174 37.2071C45.3346 37.0867 45.4499 36.9261 45.5989 36.7984C45.7479 36.6707 45.8852 36.498 46.035 36.353C46.1486 36.243 46.2812 36.1474 46.3751 36.0229C46.4956 35.8623 46.6562 35.749 46.7851 35.5988C46.89 35.4784 47.0305 35.372 47.1345 35.2515C47.3437 35.0077 47.5919 34.8049 47.8104 34.5712C48.0288 34.3375 48.2569 34.1042 48.4878 33.8785C48.6123 33.758 48.7288 33.6207 48.8625 33.5171C49.0231 33.3966 49.1516 33.2464 49.2886 33.1115C49.5372 32.8669 49.7705 32.6083 50.0259 32.3666C50.1323 32.2654 50.27 32.1839 50.3443 32.0614C50.4503 31.8871 50.6387 31.8032 50.7459 31.6289C50.8395 31.4787 50.9965 31.3679 51.1258 31.2402C51.3499 31.0193 51.5948 30.8205 51.7976 30.5768C51.9097 30.4423 52.043 30.3258 52.1667 30.2013C52.3209 30.0467 52.4727 29.8893 52.6301 29.7379C52.818 29.5568 53.0317 29.3962 53.1975 29.1986C53.4308 28.9239 53.6959 28.681 53.9489 28.4284C54.1324 28.2452 54.3356 28.0698 54.5135 27.883C54.7544 27.6284 55.0098 27.3843 55.252 27.1293C55.4403 26.9309 55.6712 26.7679 55.8439 26.5594C56.0696 26.286 56.3354 26.0547 56.5796 25.8017C56.8125 25.5607 57.0615 25.3342 57.2848 25.0837C57.3599 25.0001 57.339 24.9523 57.2816 24.8708C57.2149 24.7761 57.1145 24.7255 57.0406 24.6395C56.83 24.4024 56.6064 24.1772 56.3708 23.9649C56.2483 23.8524 56.1399 23.7271 56.0126 23.6183C55.8427 23.4734 55.7122 23.283 55.5463 23.132C55.3375 22.9425 55.1492 22.7341 54.9496 22.5365C54.7974 22.3859 54.6472 22.2341 54.4958 22.0835C54.3011 21.89 54.0995 21.704 53.9131 21.5012C53.7642 21.3406 53.6027 21.1888 53.4469 21.0334C53.3216 20.9085 53.1975 20.7824 53.071 20.6591C52.8393 20.4334 52.6048 20.211 52.3743 19.9845C52.2562 19.868 52.1454 19.7435 52.0289 19.6259C51.8506 19.4448 51.6719 19.2645 51.4904 19.087C51.3262 18.9263 51.1543 18.7725 50.9925 18.6087C50.8306 18.4449 50.6969 18.2666 50.5286 18.1188C50.3279 17.9433 50.1488 17.7469 49.9592 17.5634C49.7058 17.3176 49.4613 17.0558 49.2095 16.8068C49.0203 16.6197 48.8171 16.4382 48.6336 16.247C48.3927 15.9953 48.1413 15.7519 47.8995 15.4997C47.6212 15.2098 47.3329 14.9283 47.0397 14.6524C46.9267 14.5472 46.8194 14.436 46.7185 14.3191C46.5121 14.0753 46.2631 13.8677 46.033 13.644C45.9133 13.5365 45.7997 13.4223 45.6929 13.3019C45.4885 13.0521 45.2343 12.8517 45.0146 12.6192C44.8941 12.4895 44.7736 12.3514 44.6407 12.2273C44.4126 12.0133 44.2134 11.7663 43.9705 11.5719C43.8183 11.4515 43.6894 11.3037 43.5577 11.1704C43.326 10.9354 43.0979 10.6929 42.8621 10.4624C42.6613 10.2648 42.4469 10.0721 42.2513 9.87007C41.9742 9.58415 41.6803 9.31349 41.4185 9.01231C41.3867 8.97577 41.3361 8.96572 41.2839 9.01873C41.033 9.27373 40.7755 9.52191 40.5209 9.77409C40.2503 10.044 39.9728 10.3074 39.7138 10.5881C39.5419 10.7748 39.3427 10.931 39.1741 11.1218C39.0504 11.2623 38.9086 11.3908 38.7773 11.5274C38.6018 11.7093 38.4243 11.8912 38.2324 12.0558C38.0717 12.1932 37.9243 12.3486 37.781 12.4976C37.6637 12.618 37.5264 12.7293 37.4196 12.8674C37.2848 13.045 37.1303 13.2067 36.959 13.3493C36.6732 13.5871 36.4057 13.8458 36.1586 14.1235C35.8538 14.4588 35.5024 14.746 35.2093 15.0917C35.0458 15.2841 34.8479 15.4471 34.6672 15.6258C34.5415 15.7499 34.4194 15.8784 34.2949 16.0041C34.1166 16.184 33.9391 16.3655 33.7592 16.5422C33.5793 16.7189 33.3881 16.8743 33.2323 17.0643C33.0765 17.2542 32.8709 17.402 32.7059 17.5887C32.5622 17.7594 32.4074 17.9204 32.2424 18.0706C31.9589 18.3135 31.7099 18.5926 31.4341 18.8416C31.1621 19.0949 30.9062 19.3648 30.6678 19.65C30.5747 19.7588 30.4719 19.8837 30.3522 19.9636C30.0767 20.1475 29.9036 20.4294 29.6563 20.6399C29.4266 20.8354 29.2463 21.0876 29.0218 21.29C28.6704 21.6064 28.356 21.957 28.0259 22.2939C27.9211 22.4004 27.8223 22.5272 27.7082 22.6068C27.4364 22.7959 27.2544 23.0686 27.0127 23.2842C26.7709 23.4999 26.5605 23.74 26.3272 23.9613C26.1055 24.1717 25.8939 24.393 25.6779 24.609C25.5477 24.7395 25.416 24.8684 25.2867 25.0001C25.1506 25.1391 24.9871 25.262 24.8703 25.4017C24.698 25.6113 24.4844 25.78 24.3185 25.9968C24.2314 26.1103 24.1295 26.2117 24.0157 26.2984C23.7579 26.4904 23.574 26.7526 23.3371 26.9642C23.1106 27.165 22.9001 27.3963 22.6885 27.6168C22.3857 27.9316 22.058 28.2284 21.756 28.5468C21.6151 28.695 21.4348 28.797 21.3071 28.9516C21.1794 29.1062 21.0589 29.1335 20.9501 28.9649C20.8111 28.7488 20.5786 28.6388 20.4156 28.4428C20.2437 28.2376 20.0329 28.0637 19.861 27.8481C19.7508 27.7031 19.6207 27.5743 19.4747 27.4654C19.1225 27.2192 18.8639 26.8843 18.5723 26.5819C18.4214 26.4253 18.2736 26.2679 18.1097 26.1241C17.9342 25.9707 17.768 25.8065 17.6045 25.6422C17.4262 25.4611 17.2604 25.2676 17.0797 25.0893C17.0094 25.0198 17.0235 24.9162 17.0584 24.8989C17.2026 24.8287 17.2648 24.6825 17.3797 24.5917C17.6339 24.3909 17.8258 24.1327 18.0623 23.9167C18.2836 23.7159 18.4828 23.485 18.696 23.2742C18.937 23.0372 19.1554 22.7786 19.4092 22.5566C19.5297 22.4505 19.6381 22.3349 19.7494 22.2208C19.9136 22.0518 20.0815 21.8863 20.2477 21.7197C20.4284 21.5386 20.6091 21.3563 20.7907 21.1776C20.9513 21.0214 21.128 20.8808 21.2754 20.7133C21.4657 20.4969 21.6685 20.2897 21.8693 20.0861C22.1187 19.8331 22.3801 19.5913 22.6287 19.3355C22.7311 19.2303 22.8158 19.101 22.9367 19.0179C23.107 18.901 23.2178 18.7276 23.3748 18.5991C23.5061 18.4914 23.6202 18.3629 23.7431 18.2449C23.9707 18.0272 24.1743 17.7871 24.4085 17.5734C24.5691 17.4277 24.7193 17.2662 24.8719 17.1108C25.0016 16.9783 25.1502 16.8635 25.2662 16.7157C25.3602 16.5952 25.451 16.4583 25.575 16.3788C25.7461 16.2695 25.863 16.1069 26.0019 15.9732C26.1409 15.8394 26.283 15.7238 26.4107 15.5873C26.6228 15.3627 26.8369 15.1407 27.0533 14.9215C27.1882 14.7849 27.3259 14.6363 27.4609 14.5002C27.6833 14.2757 27.893 14.0352 28.1299 13.8292C28.2785 13.6999 28.3897 13.5356 28.5568 13.4224C28.682 13.3372 28.7692 13.1947 28.8732 13.0778C29.1182 12.8891 29.3005 12.6361 29.5286 12.4353C29.7747 12.2169 29.9904 11.9695 30.2329 11.7478C30.5434 11.4643 30.8116 11.1354 31.1208 10.8499C31.2381 10.7415 31.3216 10.6013 31.4525 10.5118C31.6935 10.3451 31.8629 10.1022 32.0726 9.9026C32.2099 9.77128 32.3484 9.62431 32.4818 9.48376C32.6729 9.28418 32.8878 9.11029 33.0616 8.89746Z" fill="#058ED8"/>
<path d="M33.0616 8.89751C32.8877 9.11035 32.6729 9.28423 32.4853 9.4818C32.352 9.62236 32.2135 9.76933 32.0761 9.90064C31.8665 10.1014 31.6986 10.3424 31.4561 10.5098C31.3256 10.5994 31.2416 10.7395 31.1244 10.848C30.8152 11.1335 30.5469 11.4624 30.2365 11.7459C29.9956 11.9675 29.7783 12.2149 29.5321 12.4334C29.304 12.6342 29.1217 12.8883 28.8768 13.0759C28.7326 12.9811 28.7057 12.7892 28.57 12.6936C28.3872 12.5655 28.268 12.3747 28.1009 12.239C27.9471 12.1137 27.8483 11.9358 27.6744 11.835C27.5347 11.7547 27.4146 11.6463 27.3532 11.4961C27.3289 11.4444 27.2905 11.4007 27.2423 11.37C27.0612 11.2403 26.9331 11.0616 26.7777 10.909C26.6456 10.7797 26.5271 10.6279 26.3798 10.5243C26.2324 10.4207 26.0987 10.3155 26.0183 10.1496C25.995 10.1026 25.938 10.0721 25.8979 10.034C25.7541 9.90024 25.6015 9.77455 25.469 9.63038C25.3287 9.47141 25.1778 9.32222 25.0172 9.18384C24.8718 9.06337 24.7739 8.9192 24.5811 9.16376C24.4646 9.31154 24.2912 9.43924 24.1582 9.5818C24.0253 9.72435 23.8856 9.85929 23.7538 9.99703C23.6221 10.1348 23.5181 10.2858 23.3703 10.3954C23.2226 10.505 23.1181 10.6636 22.9756 10.7733C22.8265 10.8966 22.6875 11.0317 22.56 11.1772C22.4294 11.3158 22.2909 11.4607 22.1584 11.5937C21.9576 11.7945 21.7383 11.9928 21.5391 12.196C21.3123 12.4297 21.0657 12.6454 20.8508 12.8928C20.7601 12.9972 20.646 13.0935 20.5432 13.1907C20.4204 13.3064 20.2782 13.414 20.1818 13.5493C20.0666 13.71 19.9108 13.8304 19.7802 13.9678C19.6553 14.1003 19.5469 14.2581 19.3983 14.3657C19.2498 14.4734 19.1474 14.6372 19.0036 14.7456C18.8466 14.8661 18.7277 15.0199 18.5831 15.1492C18.4259 15.2891 18.2797 15.441 18.1458 15.6034C18.0378 15.7347 17.8924 15.819 17.7888 15.9592C17.6794 16.1056 17.5497 16.2356 17.4037 16.3455C17.264 16.4495 17.1764 16.5933 17.0479 16.7033C16.8929 16.8358 16.7487 16.9844 16.603 17.1282C16.4688 17.2599 16.3219 17.3832 16.2054 17.5297C16.0849 17.6839 15.9243 17.7956 15.8038 17.9522C15.6907 18.0905 15.5647 18.2179 15.4275 18.3325C15.289 18.455 15.175 18.6043 15.0332 18.7148C14.8826 18.836 14.7431 18.9704 14.6164 19.1163C14.4251 19.334 14.2227 19.5417 14.01 19.7384C13.7867 19.942 13.5682 20.1576 13.3638 20.3725C13.1422 20.6034 12.9221 20.8455 12.6884 21.0575C12.4639 21.2607 12.2571 21.4844 12.0394 21.6924C11.782 21.9382 11.5331 22.1952 11.2764 22.445C11.1516 22.5655 11.013 22.6831 10.9058 22.8213C10.7853 22.9767 10.6347 23.1024 10.5082 23.2489C10.3943 23.3873 10.2672 23.5142 10.1287 23.628C9.98176 23.7441 9.87574 23.9015 9.73198 24.0099C9.59424 24.1147 9.50709 24.2589 9.37698 24.3677C9.19909 24.5167 9.05251 24.7018 8.88104 24.8588C8.77863 24.9528 8.77422 25.0596 8.89549 25.1323C8.92882 25.1524 8.97581 25.1636 8.99348 25.1929C9.19828 25.5596 9.56974 25.7704 9.82514 26.0901C9.9416 26.2358 10.142 26.3194 10.2388 26.4607C10.4046 26.7017 10.6343 26.8711 10.8267 27.0787C11.0676 27.3377 11.3487 27.5662 11.5897 27.8192C11.8423 28.0807 12.1077 28.3349 12.3507 28.6087C12.4607 28.732 12.5659 28.8778 12.7121 28.9641C12.9787 29.1223 13.1052 29.4127 13.3414 29.5994C13.4933 29.7224 13.6314 29.8615 13.7534 30.0142C13.9429 30.2463 14.2353 30.3716 14.3891 30.6383C14.4214 30.6886 14.4622 30.733 14.5095 30.7696C14.7637 30.9796 14.9882 31.2234 15.2127 31.4603C15.4079 31.6659 15.6215 31.8538 15.809 32.0687C16.0275 32.3197 16.3082 32.516 16.5271 32.7666C16.8033 33.083 17.1238 33.3537 17.4049 33.6657C17.686 33.9778 18.0113 34.2573 18.3129 34.558C18.6341 34.8793 18.9442 35.2174 19.2666 35.5403C19.5606 35.8354 19.869 36.1153 20.1613 36.4129C20.2742 36.5277 20.3995 36.631 20.5071 36.7478C20.7171 36.9767 20.9376 37.1936 21.1605 37.4088C21.2986 37.5417 21.4327 37.6791 21.5673 37.816C21.7713 38.024 21.966 38.2425 22.1809 38.4388C22.3263 38.5637 22.4635 38.6979 22.5917 38.8404C22.7852 39.0709 23.0121 39.2661 23.2181 39.4797C23.4374 39.7066 23.6695 39.9279 23.9008 40.1475C24.1606 40.3957 24.4052 40.6611 24.6718 40.9045C24.7706 40.9948 24.8277 40.9924 24.9281 40.9045C25.0662 40.7816 25.1666 40.6194 25.2987 40.5077C25.5702 40.2784 25.7959 40.0074 26.0561 39.7696C26.389 39.4653 26.709 39.148 27.0223 38.8231C27.3809 38.4505 27.758 38.0959 28.125 37.7313C28.2993 37.5582 28.4563 37.3658 28.6447 37.2092C28.7995 37.0834 28.9441 36.9455 29.0771 36.7968C29.3827 36.4482 29.7369 36.1511 30.0445 35.8065C30.3132 35.5053 30.626 35.2443 30.9023 34.9492C31.1505 34.6849 31.4035 34.4187 31.6629 34.1729C31.9372 33.9131 32.2111 33.6453 32.4833 33.3838C32.8901 32.9935 33.2756 32.5807 33.6796 32.1839C34.3298 31.5495 34.953 30.8877 35.6128 30.2616C36.0658 29.8319 36.4874 29.3657 36.9316 28.9236C37.384 28.4725 37.8359 28.0208 38.2873 27.5687C38.7439 27.1125 39.1917 26.645 39.6603 26.2033C40.0828 25.8017 40.4739 25.3729 40.8984 24.9741C41.3702 24.5304 41.7959 24.036 42.2669 23.5879C42.5348 23.3329 42.789 23.0658 43.0404 22.7923C43.2757 22.5361 43.546 22.3105 43.7945 22.0695C44.0431 21.8286 44.3001 21.5792 44.5294 21.3133C44.6455 21.1784 44.7961 21.0861 44.9069 20.9519C44.9623 20.8837 45.0459 20.8624 45.1009 20.9154C45.3057 21.113 45.4928 21.3294 45.6984 21.5262C45.8089 21.6318 45.8912 21.7643 46.006 21.8583C46.1663 21.9958 46.319 22.1419 46.4634 22.296C46.5731 22.408 46.6775 22.5309 46.7975 22.6273C47.0497 22.8309 47.2353 23.0979 47.485 23.3056C47.6083 23.408 47.7164 23.5573 47.8368 23.667C48.0778 23.8826 48.2966 24.1191 48.5227 24.3456C48.658 24.481 48.8199 24.5906 48.9359 24.742C49.0094 24.8388 49.2046 24.9207 49.0893 25.0697C48.8942 25.3223 48.6348 25.5198 48.4215 25.7608C48.2725 25.9294 48.0721 26.0539 47.9316 26.2282C47.8244 26.3611 47.6963 26.4748 47.5826 26.5972C47.3493 26.8478 47.0923 27.0791 46.8562 27.3293C46.7546 27.4373 46.6417 27.543 46.5349 27.6506C46.3056 27.8763 46.0558 28.0831 45.841 28.3216C45.7281 28.4469 45.6073 28.5686 45.4904 28.6854C45.3322 28.8461 45.1547 28.9938 45.0085 29.1593C44.8318 29.3573 44.6322 29.5327 44.4527 29.7267C44.3033 29.8873 44.1226 30.0367 43.968 30.1969C43.7849 30.3873 43.6066 30.5917 43.4159 30.768C43.1524 31.0117 42.901 31.27 42.646 31.5201C42.4601 31.7029 42.2774 31.9008 42.0943 32.0892C42.0007 32.1855 41.9083 32.2948 41.8047 32.3871C41.6357 32.5373 41.4517 32.6767 41.3108 32.8505C41.1433 33.0569 40.9494 33.2365 40.763 33.4208C40.496 33.6854 40.231 33.9529 39.9623 34.2159C39.8531 34.3223 39.7724 34.4596 39.6519 34.5452C39.486 34.6632 39.3607 34.8195 39.2101 34.952C39.0853 35.0628 38.9889 35.207 38.8604 35.3134C38.611 35.5186 38.4226 35.7828 38.1753 35.9925C38.0514 36.1057 37.9337 36.2255 37.8227 36.3515C37.6448 36.541 37.4396 36.7052 37.2962 36.9277C37.2187 36.8952 37.185 36.9639 37.1533 37.0032C36.9364 37.2747 36.6537 37.4799 36.4216 37.7357C36.2055 37.9734 35.9799 38.2035 35.7542 38.4296C35.5534 38.6304 35.3405 38.8155 35.1418 39.0159C34.9996 39.1589 34.8663 39.3159 34.7233 39.454C34.5804 39.5921 34.4482 39.7464 34.2872 39.8729C34.0495 40.0596 33.8547 40.3001 33.6346 40.5109C33.4997 40.6399 33.4134 40.8121 33.2427 40.9125C33.168 40.9563 33.1271 41.0575 33.0708 41.1318C32.8825 41.2663 32.7415 41.453 32.5697 41.6016C32.442 41.7112 32.3416 41.8486 32.2151 41.959C32.0663 42.0828 31.9309 42.2218 31.8111 42.3739C31.7159 42.5007 31.5701 42.5883 31.4597 42.7059C31.3232 42.8509 31.1762 42.987 31.0457 43.138C30.9251 43.2825 30.7916 43.4157 30.6469 43.536C30.4903 43.6625 30.3686 43.8203 30.2192 43.9528C30.0939 44.0562 29.9804 44.1731 29.8807 44.3014C29.7554 44.4761 29.5803 44.6126 29.4257 44.7596C29.288 44.8905 29.1671 45.0443 29.0053 45.158C28.8535 45.2644 28.7491 45.4362 28.6037 45.5559C28.4696 45.6672 28.3627 45.8053 28.2447 45.927C28.1089 46.0687 27.9423 46.1852 27.8311 46.3595C27.7507 46.4864 27.5989 46.5667 27.4877 46.6763C27.3456 46.8165 27.2038 46.9574 27.0741 47.1096C26.9576 47.2473 26.8203 47.3706 26.6926 47.4995C26.4693 47.724 26.2416 47.9441 26.0167 48.1673C25.8826 48.3007 25.7521 48.4484 25.6003 48.5689C25.4565 48.685 25.3047 48.8163 25.2064 48.9677C25.1156 49.107 24.9252 49.1339 24.8803 49.3094C24.8775 49.3215 24.7389 49.3199 24.7369 49.3094C24.7016 49.1283 24.5 49.1086 24.4156 48.9653C24.3205 48.8046 24.1426 48.6954 24.0044 48.5601C23.8663 48.4247 23.7233 48.279 23.5856 48.1352C23.4735 48.0184 23.3619 47.9019 23.2386 47.7951C23.0928 47.6686 22.9611 47.526 22.8254 47.3879C22.6897 47.2497 22.5503 47.1004 22.4118 46.9574C22.2953 46.8369 22.1865 46.7068 22.0568 46.6028C21.8998 46.4771 21.7825 46.3145 21.6275 46.1864C21.4827 46.0652 21.3484 45.9321 21.2259 45.7884C21.099 45.6414 20.9504 45.5158 20.8308 45.3624C20.7171 45.217 20.5641 45.1049 20.4316 44.9805C20.2922 44.8495 20.1766 44.6901 20.0124 44.5789C19.8895 44.4962 19.8055 44.3604 19.6983 44.2528C19.5497 44.1034 19.3855 43.9673 19.2473 43.8135C19.1172 43.6693 18.9642 43.5489 18.8426 43.3959C18.7209 43.2429 18.5719 43.1192 18.4342 42.983C18.3185 42.869 18.2023 42.7556 18.0856 42.6429C17.9386 42.5011 17.8045 42.3477 17.6463 42.2152C17.5138 42.1001 17.3893 41.9762 17.2736 41.8442C17.0507 41.5956 16.7953 41.3828 16.5716 41.1406C16.3757 40.929 16.1701 40.7254 15.9733 40.5138C15.8223 40.3511 15.6416 40.2029 15.4914 40.0411C15.3782 39.9206 15.2408 39.819 15.1328 39.6861C15.0113 39.543 14.8786 39.4098 14.736 39.2878C14.6188 39.1842 14.5107 39.0681 14.4003 38.9569C14.2517 38.8067 14.0859 38.6713 13.9493 38.5151C13.8208 38.3686 13.6614 38.2549 13.5441 38.0963C13.4315 37.952 13.3055 37.8186 13.1679 37.6979C13.0309 37.5718 12.9161 37.4168 12.7707 37.3104C12.6101 37.1936 12.5145 37.0177 12.3426 36.9161C12.2181 36.8422 12.1374 36.7064 12.0394 36.6028C11.7937 36.3426 11.5371 36.0969 11.2764 35.8503C11.168 35.7467 11.0668 35.6202 10.964 35.5033C10.8093 35.3377 10.6445 35.1819 10.4705 35.0367C10.3665 34.9443 10.2697 34.8359 10.1789 34.7391C9.99742 34.5484 9.80306 34.3653 9.62596 34.1685C9.47858 34.0051 9.28462 33.8617 9.14407 33.6979C8.94328 33.4682 8.71037 33.2742 8.50436 33.0529C8.28831 32.8204 8.04375 32.6008 7.82168 32.3735C7.61125 32.1586 7.38677 31.9518 7.18156 31.731C6.96592 31.4972 6.72577 31.276 6.49888 31.0519C6.31134 30.8688 6.1214 30.6792 5.9423 30.4833C5.79251 30.3194 5.61662 30.1668 5.45759 30.009C5.33993 29.8926 5.21665 29.7709 5.1038 29.6444C4.89016 29.4034 4.62191 29.2123 4.41269 28.9697C4.30105 28.8412 4.17656 28.7244 4.0601 28.6035C3.90429 28.4429 3.74406 28.2794 3.57138 28.1305C3.3706 27.9582 3.20996 27.7425 3.02243 27.5566C2.87331 27.4091 2.72499 27.2612 2.57748 27.1129C2.37401 26.9081 2.16934 26.7046 1.96347 26.5025C1.80645 26.3487 1.64984 26.1917 1.4876 26.0419C1.36571 25.9337 1.25189 25.8168 1.14706 25.6921C1.03101 25.5483 0.887243 25.4287 0.754722 25.3038C0.674345 25.231 0.600692 25.1512 0.534658 25.0653C0.427036 24.9143 0.617383 24.8372 0.691675 24.74C0.807731 24.589 0.968362 24.4781 1.10369 24.3436C1.33099 24.1183 1.54944 23.8814 1.78959 23.6658C1.91006 23.5585 2.01808 23.4088 2.14097 23.3043C2.38994 23.0967 2.57547 22.8305 2.82766 22.6269C2.94287 22.5215 3.0515 22.4091 3.15294 22.2904C3.29488 22.1346 3.44788 21.9892 3.61074 21.8555C3.72438 21.7667 3.8047 21.6406 3.90991 21.5374C4.08701 21.3643 4.28137 21.1997 4.43437 21.0114C4.62713 20.7744 4.87169 20.5961 5.06766 20.3636C5.26363 20.1311 5.49132 19.9283 5.70737 19.7143C5.90816 19.5163 6.11216 19.3244 6.30371 19.1179C6.45712 18.9525 6.63582 18.8115 6.79685 18.6525C6.91732 18.5349 7.02133 18.4031 7.13819 18.2823C7.26228 18.1546 7.39801 18.0413 7.51889 17.908C7.63976 17.7747 7.77951 17.6454 7.90882 17.5125C8.06624 17.3518 8.24293 17.2077 8.40276 17.0478C8.58909 16.8611 8.76217 16.6611 8.9477 16.4736C9.10833 16.313 9.2782 16.164 9.44083 16.0066C9.56152 15.8978 9.67463 15.781 9.77936 15.6568C9.89381 15.5106 10.0444 15.4046 10.1645 15.2637C10.288 15.1169 10.4234 14.9806 10.5693 14.8561C10.7431 14.7123 10.9059 14.5558 11.0564 14.3878C11.2319 14.187 11.4298 14.0087 11.6126 13.8176C11.7672 13.657 11.9386 13.5036 12.0997 13.3473C12.2607 13.1911 12.4306 13.0393 12.5699 12.863C12.7257 12.6659 12.9253 12.5137 13.1004 12.3382C13.212 12.2261 13.3482 12.1085 13.4486 11.9973C13.6052 11.8234 13.7811 11.6583 13.9337 11.4784C14.0782 11.3082 14.2674 11.1572 14.4324 10.9941C14.5557 10.8737 14.6794 10.75 14.8019 10.6271C15.026 10.4018 15.2436 10.1721 15.4749 9.95245C15.6046 9.82796 15.7295 9.69905 15.8544 9.57015C16.0122 9.40751 16.207 9.2766 16.3456 9.10031C16.511 8.88868 16.7238 8.72886 16.8977 8.52847C17.0306 8.37452 17.1756 8.23149 17.3314 8.10079C17.5238 7.94016 17.6772 7.74178 17.8535 7.5679C18.0298 7.39402 18.2149 7.22656 18.386 7.04586C18.557 6.86515 18.7385 6.69408 18.9164 6.5198C19.0943 6.34552 19.253 6.14755 19.4449 5.99013C19.5716 5.88738 19.69 5.77486 19.7991 5.65361C20.0437 5.3725 20.2951 5.0894 20.5649 4.84645C20.846 4.59466 21.1083 4.32078 21.3837 4.06619C21.5765 3.88789 21.758 3.67706 21.9524 3.49234C22.2736 3.18553 22.5708 2.85264 22.8957 2.54744C23.1165 2.33983 23.3326 2.11615 23.5418 1.89087C23.7133 1.70574 23.9052 1.54069 24.0767 1.35356C24.2715 1.14113 24.4935 0.951988 24.6927 0.744375C24.7775 0.655628 24.8437 0.649604 24.908 0.744375C25.0618 0.969658 25.3039 1.10017 25.483 1.30336C25.7641 1.6206 26.0806 1.90573 26.391 2.19406C26.5657 2.3575 26.7247 2.56551 26.8942 2.74501C27.0869 2.94861 27.301 3.13614 27.5014 3.33492C27.6461 3.47193 27.783 3.61699 27.9114 3.76943C28.0073 3.8899 28.1346 3.97022 28.2375 4.08145C28.4053 4.26417 28.5704 4.46856 28.7647 4.60952C29.0177 4.79223 29.1924 5.04081 29.4129 5.24682C29.6458 5.46487 29.8683 5.70461 30.0911 5.93631C30.2959 6.14915 30.5152 6.35837 30.7337 6.56317C30.9666 6.78364 31.1975 7.01334 31.4143 7.25428C31.5629 7.41973 31.7456 7.56229 31.9022 7.72774C32.0737 7.90885 32.2637 8.07228 32.4359 8.25299C32.6082 8.4337 32.7749 8.6377 32.9861 8.78066C33.0447 8.8164 33.0447 8.85334 33.0616 8.89751Z" fill="white"/>
<path d="M43.2304 19.0678C43.1867 19.0927 43.1802 19.1726 43.1686 19.1758C42.9907 19.2244 42.959 19.4199 42.8136 19.5131C42.6632 19.6171 42.5322 19.7466 42.4265 19.8958C42.3229 20.036 42.1727 20.1143 42.0719 20.2544C41.9514 20.4219 41.7872 20.5636 41.6354 20.7038C41.4936 20.8351 41.3731 20.9885 41.2181 21.1086C41.0707 21.2234 40.9655 21.3868 40.8101 21.4993C40.666 21.6037 40.5668 21.7583 40.4391 21.8828C40.3037 22.0153 40.1527 22.1418 40.0375 22.3004C39.9347 22.4402 39.7965 22.5586 39.67 22.6747C39.4255 22.8996 39.2131 23.1566 38.9677 23.373C38.8243 23.5003 38.6982 23.6485 38.5505 23.7746C38.4127 23.8911 38.291 24.0481 38.1513 24.1685C38.0232 24.279 37.9364 24.4227 37.7975 24.5267C37.6551 24.6407 37.5247 24.7689 37.4084 24.9094C37.2686 25.0701 37.0931 25.1934 36.9727 25.3628C36.8727 25.503 36.7289 25.5925 36.6165 25.717C36.491 25.8649 36.3526 26.0013 36.2028 26.1246C36.0546 26.2391 35.933 26.3872 35.8013 26.5194C35.6756 26.6446 35.541 26.7651 35.4258 26.8956C35.2969 27.0414 35.1419 27.1591 35.0218 27.3137C34.9036 27.4603 34.7702 27.5939 34.6238 27.7124C34.4929 27.8217 34.4086 27.9682 34.2684 28.0678C34.0982 28.1883 33.9644 28.3586 33.8175 28.5059C33.6833 28.6405 33.5364 28.7698 33.4135 28.922C33.297 29.0669 33.1404 29.1802 33.0211 29.3276C32.9091 29.4665 32.7633 29.5745 32.6376 29.6998C32.5035 29.8335 32.3782 29.9841 32.22 30.1014C32.0814 30.2042 31.9618 30.3423 31.8457 30.4696C31.6216 30.7146 31.3638 30.9258 31.1462 31.1704C30.9542 31.386 30.7354 31.5748 30.5486 31.7964C30.4282 31.939 30.2623 32.0599 30.1294 32.194C29.9965 32.3281 29.8447 32.4558 29.7234 32.6088C29.6021 32.7618 29.4523 32.8847 29.3158 33.0216C29.1977 33.1421 29.0913 33.273 28.9616 33.377C28.8054 33.5027 28.6909 33.6686 28.5299 33.7906C28.3914 33.8954 28.2737 34.0316 28.156 34.1585C27.9283 34.3994 27.7123 34.6512 27.4476 34.8556C27.4234 34.8741 27.4013 34.8952 27.3818 34.9187C27.1834 35.1672 27.0738 35.1684 26.8862 34.9339C26.6855 34.6833 26.4377 34.4785 26.21 34.254C25.9823 34.0296 25.765 33.7882 25.539 33.5589C25.3362 33.3533 25.1229 33.1574 24.9221 32.9501C24.6848 32.7048 24.4378 32.4683 24.2025 32.2205C24.0126 32.0197 23.778 31.8567 23.6222 31.6266C23.4752 31.4101 23.213 31.3238 23.0797 31.0937C23.0319 31.0134 22.9994 30.9796 23.0749 30.9001C23.4102 30.5387 23.7676 30.1974 24.1162 29.848C24.3427 29.6211 24.5635 29.3838 24.7884 29.1545C25.0045 28.9344 25.2301 28.7224 25.4482 28.5011C25.6663 28.2798 25.8795 28.0526 26.1072 27.8449C26.3264 27.6442 26.5088 27.41 26.7397 27.2241C26.8754 27.1157 26.9886 26.9787 27.1115 26.8547C27.4372 26.5258 27.7617 26.1961 28.0958 25.8756C28.3235 25.6568 28.5174 25.401 28.7548 25.193C28.9785 24.9982 29.164 24.7685 29.3877 24.5741C29.6234 24.3697 29.8358 24.1384 30.0563 23.9164C30.2768 23.6943 30.4844 23.4766 30.6988 23.2578C30.9309 23.0217 31.163 22.7855 31.3976 22.5514C31.6056 22.3438 31.8168 22.139 32.0264 21.9326C32.2565 21.7057 32.4874 21.4796 32.7151 21.2499C32.8268 21.1375 32.9215 21.0058 33.042 20.9054C33.2061 20.7635 33.3589 20.6091 33.499 20.4436C33.6002 20.3283 33.7199 20.2315 33.8299 20.1263C34.0765 19.8902 34.3194 19.652 34.5443 19.3958C34.644 19.2883 34.7495 19.1863 34.8604 19.0903C35.1194 18.8521 35.3535 18.5923 35.5993 18.3433C35.8045 18.1353 36.0277 17.9462 36.2354 17.741C36.396 17.5803 36.541 17.4069 36.7 17.2462C36.9056 17.0382 37.1232 16.8418 37.3268 16.6326C37.5578 16.3953 37.8019 16.1724 38.0244 15.9267C38.2292 15.7095 38.4449 15.5029 38.6705 15.3074C38.7532 15.2327 38.8171 15.1416 38.897 15.0641C39.0625 14.9035 39.1576 14.9536 39.2833 15.1018C39.409 15.25 39.5705 15.3765 39.7018 15.5251C39.8387 15.6801 39.9913 15.8235 40.1351 15.9668C40.2499 16.0817 40.3628 16.217 40.5065 16.3166C40.6503 16.4162 40.7503 16.5869 40.8816 16.7129C40.9957 16.8222 41.1041 16.9358 41.2149 17.0474C41.4808 17.3145 41.7494 17.5787 42.0137 17.8474C42.1976 18.0345 42.3976 18.2144 42.5855 18.3991C42.7461 18.5562 42.9276 18.6979 43.0513 18.8931C43.0931 18.9625 43.2051 18.9706 43.2304 19.0678Z" fill="white"/>
</svg>
