<svg width="114" height="31" viewBox="0 0 114 31" fill="none" xmlns="http://www.w3.org/2000/svg">
<path d="M45.2077 15.7291C45.2077 13.0259 45.2104 10.3229 45.2024 7.61972C45.2024 7.40413 45.2626 7.3562 45.4697 7.35645C48.644 7.36297 51.8183 7.36297 54.9924 7.35645C55.1955 7.35645 55.2542 7.40363 55.2474 7.60993C55.2311 8.11187 55.2321 8.61382 55.2474 9.11576C55.2534 9.3183 55.1992 9.372 54.9934 9.37125C52.607 9.36339 50.2205 9.36188 47.8339 9.36674C47.4544 9.36674 47.4956 9.33361 47.4953 9.69777C47.4941 11.1885 47.4941 12.6791 47.4953 14.1696C47.4953 14.4818 47.4953 14.4823 47.8005 14.4823C49.9167 14.4823 52.0329 14.4856 54.1501 14.477C54.3675 14.477 54.4217 14.54 54.4154 14.7481C54.4006 15.2267 54.4031 15.7058 54.4154 16.1844C54.4202 16.3817 54.3652 16.4459 54.1564 16.4449C52.0635 16.4366 49.9704 16.4391 47.8775 16.4406C47.5121 16.4406 47.5377 16.3882 47.5377 16.7699C47.5377 19.1178 47.5342 21.4656 47.542 23.8134C47.542 24.0431 47.487 24.1221 47.2463 24.1146C46.6523 24.0973 46.057 24.1008 45.4627 24.1146C45.2641 24.1189 45.2044 24.0719 45.2052 23.8624C45.2112 21.1512 45.212 18.4401 45.2077 15.7291Z" fill="#058ED8"/>
<path d="M57.7479 7.79959C57.7715 7.56167 57.7314 7.31521 57.8544 7.08758C57.9839 6.84815 58.1671 6.67749 58.3972 6.52891C58.6412 6.37181 58.8914 6.29526 59.172 6.31308C59.5647 6.33818 59.881 6.486 60.1887 6.76483C60.6153 7.15208 60.6331 7.61161 60.5882 8.09925C60.5463 8.55627 60.2328 8.85568 59.8825 9.11067C59.506 9.38398 59.0716 9.29036 58.6675 9.23967C58.4825 9.21658 58.2805 9.07152 58.1216 8.92194C57.7966 8.6145 57.7294 8.22198 57.7479 7.79959Z" fill="#058ED8"/>
<path d="M78.1689 15.8714V7.97129C78.1689 7.58454 78.2006 7.54941 78.5956 7.51477C78.7648 7.49997 78.947 7.52431 79.1013 7.4706C79.7591 7.24247 80.4448 7.32378 81.1154 7.25075C81.9245 7.16241 82.7312 7.18324 83.537 7.20784C84.1558 7.22409 84.7723 7.29006 85.3805 7.4051C85.6553 7.45881 85.963 7.50097 86.2104 7.69798C86.3216 7.78658 86.497 7.75746 86.6441 7.80816C87.0896 7.96175 87.4922 8.19064 87.899 8.41727C88.1974 8.58316 88.4471 8.80828 88.6893 9.03893C88.865 9.20633 89.0033 9.41363 89.1541 9.60638C89.439 9.97054 89.5742 10.4072 89.7519 10.8251C89.9981 11.4038 89.97 12.0097 89.9883 12.6153C90.0034 13.1094 89.9437 13.5956 89.8629 14.0784C89.832 14.2627 89.7278 14.4346 89.6566 14.6118C89.5002 15 89.3215 15.383 89.0542 15.7025C88.8236 15.9786 88.5831 16.2471 88.2825 16.469C87.9296 16.7259 87.5511 16.9458 87.1531 17.125C86.822 17.2781 86.4875 17.3579 86.1464 17.457C85.8435 17.5449 85.5285 17.5916 85.2392 17.6894C84.866 17.8149 84.4902 17.8358 84.116 17.8706C83.024 17.9725 81.9268 17.9632 80.8308 17.9484C80.6275 17.9457 80.5575 17.9914 80.5587 18.2125C80.5683 20.0965 80.5642 21.9808 80.5642 23.8651C80.5642 24.2027 80.563 24.2034 80.2337 24.2037H78.5421C78.1689 24.2037 78.1689 24.2037 78.1689 23.8174V15.8714ZM80.5637 12.6035C80.5637 13.6147 80.5703 14.6261 80.5585 15.637C80.556 15.8541 80.6235 15.9018 80.8295 15.8993C81.9752 15.8849 83.1232 15.9364 84.2646 15.7943C84.6474 15.7469 85.0426 15.7173 85.3882 15.5331C85.5017 15.4726 85.6189 15.501 85.7296 15.4314C85.9931 15.266 86.2759 15.1446 86.5239 14.938C86.8 14.7084 87.0492 14.4464 87.1925 14.1465C87.3446 13.8285 87.5188 13.4939 87.4937 13.0979C87.4701 12.7227 87.509 12.3422 87.4811 11.9648C87.4678 11.7816 87.4435 11.6116 87.3657 11.4254C87.206 11.0432 86.9975 10.7272 86.7229 10.4158C86.4805 10.1397 86.1763 9.98484 85.8947 9.78833C85.6382 9.60989 85.3037 9.55518 85.0065 9.47562C84.5264 9.34687 84.0152 9.29517 83.5155 9.28563C82.6017 9.26807 81.6854 9.21662 80.7721 9.33959C80.6021 9.36268 80.5577 9.40108 80.559 9.56873C80.5678 10.5799 80.5637 11.5913 80.5637 12.6035Z" fill="#058ED8"/>
<path d="M107.27 24.4226C106.789 24.4662 106.304 24.4246 105.837 24.2996C105.41 24.1831 104.984 24.0509 104.591 23.8077C104.374 23.6739 104.132 23.5607 103.917 23.4149C103.739 23.2947 103.58 23.1449 103.422 22.9985C103.271 22.8625 103.128 22.7164 102.996 22.5614C102.825 22.3551 102.657 22.1493 102.515 21.9166C102.306 21.574 102.123 21.2158 101.969 20.8452C101.836 20.5232 101.706 20.1982 101.64 19.8448C101.587 19.5647 101.615 19.2741 101.534 19.0093C101.326 18.337 101.401 17.6503 101.454 16.9807C101.492 16.5011 101.589 16.011 101.717 15.5329C101.796 15.238 101.918 14.9571 102.026 14.6836C102.139 14.4005 102.314 14.1212 102.483 13.8511C102.627 13.6192 102.79 13.3943 102.95 13.1805C103.197 12.8507 103.52 12.5734 103.867 12.3398C104.138 12.1544 104.419 11.9844 104.708 11.8305C105.049 11.6531 105.414 11.5638 105.77 11.4375C106.381 11.2207 107.007 11.2197 107.638 11.2224C107.945 11.2239 108.267 11.25 108.543 11.3346C109.011 11.4782 109.502 11.5675 109.941 11.8147C110.359 12.0509 110.74 12.3295 111.12 12.6239C111.547 12.9551 111.85 13.3642 112.135 13.8059C112.417 14.2391 112.64 14.7079 112.799 15.2001C112.953 15.6825 113.11 16.1508 113.178 16.662C113.267 17.3396 113.244 18.0137 113.224 18.6881C113.215 18.9827 113.208 19.2997 113.114 19.5713C113.021 19.8428 112.984 20.1319 112.838 20.3899C112.727 20.5865 112.69 20.8226 112.615 21.0392C112.546 21.2367 112.422 21.3966 112.341 21.5841C112.171 21.9836 111.873 22.3036 111.609 22.6382C111.469 22.8178 111.305 22.9773 111.121 23.112C110.831 23.321 110.565 23.5612 110.249 23.7357C109.932 23.9101 109.584 24.0213 109.266 24.1987C109.124 24.2783 108.93 24.2695 108.761 24.3119C108.288 24.4301 107.804 24.4401 107.27 24.4226ZM110.839 17.8566C110.814 17.3923 110.879 16.9248 110.767 16.4595C110.728 16.2961 110.617 16.1656 110.612 15.9924C110.602 15.5909 110.397 15.2538 110.211 14.917C110.058 14.6325 109.866 14.3706 109.641 14.139C109.516 14.0135 109.344 13.9751 109.248 13.8398C109.067 13.5851 108.767 13.5103 108.514 13.4132C108.041 13.2325 107.522 13.2653 107.016 13.2842C106.742 13.2945 106.468 13.2899 106.204 13.3906C106.03 13.4571 105.876 13.5592 105.702 13.6282C105.301 13.7869 105.012 14.1119 104.746 14.4266C104.573 14.6309 104.449 14.8987 104.31 15.1409C104.074 15.5514 104.008 16.0115 103.868 16.4459C103.764 16.7707 103.788 17.1424 103.768 17.4915C103.727 18.2193 103.766 18.9471 103.982 19.6556C104.052 19.8842 104.057 20.16 104.193 20.3332C104.364 20.5511 104.454 20.8101 104.589 21.0359C104.848 21.4689 105.227 21.7532 105.598 22.0326C105.942 22.2921 106.392 22.4306 106.829 22.4547C107.374 22.4846 107.917 22.524 108.461 22.279C108.815 22.1189 109.135 21.964 109.445 21.7146C109.906 21.3434 110.177 20.8706 110.429 20.3676C110.529 20.1668 110.54 19.9276 110.628 19.7296C110.791 19.362 110.828 18.984 110.838 18.596C110.845 18.3508 110.839 18.1036 110.839 17.8566Z" fill="#058ED8"/>
<path d="M64.1996 17.9955V12.2733C64.1996 11.922 64.2018 11.9303 64.5336 11.8479C64.963 11.7418 65.3987 11.6579 65.8299 11.5686C66.2505 11.4815 66.7083 11.5001 67.1244 11.411C68.0239 11.218 68.9204 11.3209 69.8164 11.3164C70.2224 11.3144 70.6265 11.4745 71.0361 11.5172C71.3875 11.553 71.6809 11.7179 71.9737 11.8713C72.479 12.1381 72.9212 12.4829 73.272 12.9552C73.5393 13.3151 73.7311 13.6989 73.8972 14.1074C74.171 14.7803 74.1482 15.4968 74.2549 16.1963C74.4476 17.4662 74.3174 18.7344 74.3485 20.002C74.3796 21.2755 74.3467 22.5504 74.3625 23.8243C74.3658 24.0753 74.2805 24.1185 74.0626 24.1142C73.4839 24.1034 72.9041 24.1011 72.3254 24.1142C72.1108 24.1197 72.0415 24.0733 72.0428 23.8411C72.0528 21.7174 72.0395 19.5937 72.0541 17.47C72.0583 16.8676 72.0076 16.2721 71.9356 15.68C71.8799 15.2279 71.7348 14.7914 71.5089 14.3958C71.3006 14.0359 70.947 13.7829 70.5505 13.5786C70.1489 13.3708 69.7388 13.3201 69.3142 13.3041C68.8441 13.2863 68.3687 13.2707 67.9024 13.3189C67.5368 13.357 67.1701 13.3721 66.8054 13.411C66.5 13.4436 66.4009 13.5734 66.4009 13.8863C66.4009 17.2069 66.4025 20.5275 66.4059 23.8482C66.4059 24.0633 66.3469 24.1187 66.1386 24.1139C65.5676 24.1004 64.9957 24.1014 64.4244 24.1139C64.2372 24.118 64.1958 24.0577 64.1963 23.8798C64.2018 21.9184 64.1996 19.9571 64.1996 17.9955Z" fill="#058ED8"/>
<path d="M92.7956 18.0719C92.7956 16.1564 92.7984 14.241 92.7911 12.3246C92.7911 12.1617 92.8413 12.0458 92.9866 12.03C93.2948 11.9963 93.5691 11.8495 93.8472 11.7484C94.2412 11.6051 94.6631 11.6319 95.0436 11.468C95.0586 11.4644 95.0739 11.4625 95.0893 11.4623C96.2418 11.2841 97.4015 11.2339 98.561 11.3395C98.9294 11.3732 99.2853 11.5288 99.6653 11.5584C99.8841 11.5752 99.9737 11.772 99.8766 12.0192C99.7762 12.2721 99.8219 12.5432 99.7245 12.7972C99.6342 13.0321 99.5488 13.2763 99.5649 13.5401C99.5707 13.6387 99.4811 13.6201 99.4286 13.602C98.3816 13.2404 97.2979 13.2341 96.2162 13.326C95.9827 13.3456 95.6866 13.2976 95.4718 13.5089C95.4256 13.5544 95.3084 13.534 95.2238 13.534C95.0519 13.534 94.9846 13.6028 94.9886 13.7863C95.0004 14.3422 94.9929 14.8983 94.9929 15.4545C94.9929 18.2503 94.9896 21.0461 94.9987 23.842C94.9987 24.0724 94.9344 24.1218 94.7168 24.1155C94.169 24.0988 93.6207 24.0988 93.0719 24.1155C92.8551 24.1215 92.7873 24.0734 92.7886 23.8417C92.8001 21.918 92.7956 19.9948 92.7956 18.0719Z" fill="#058ED8"/>
<path d="M60.2814 17.8407C60.2814 19.8485 60.2779 21.8548 60.2871 23.8618C60.2871 24.0728 60.2262 24.1178 60.0296 24.1127C59.4431 24.1007 58.8563 24.1035 58.2698 24.111C58.0517 24.1138 57.9724 24.054 57.9729 23.8098C57.9821 19.8192 57.9821 15.8287 57.9729 11.8385C57.9729 11.6 58.0459 11.533 58.2726 11.5373C58.8588 11.5486 59.4461 11.5518 60.0322 11.5353C60.2465 11.529 60.2846 11.603 60.2831 11.7963C60.2781 13.8113 60.2814 15.8261 60.2814 17.8407Z" fill="#058ED8"/>
<path d="M21.0987 5.31252C21.1602 5.22041 21.2561 5.15942 21.3334 5.08514C21.4202 5.00156 21.4877 4.89315 21.5994 4.83141C21.6765 4.78874 21.7282 4.70341 21.7799 4.63991C21.8489 4.55508 21.937 4.49084 22.01 4.41554C22.0908 4.33247 22.1762 4.24438 22.261 4.16306C22.3458 4.08175 22.4352 4.00395 22.5087 3.90858C22.5723 3.83244 22.6441 3.76351 22.7228 3.70304C22.8111 3.63 22.8872 3.5404 22.971 3.46009C23.0694 3.36573 23.1467 3.25179 23.2634 3.17298C23.3329 3.12555 23.3811 3.0495 23.4356 2.98902C23.5636 2.84646 23.7084 2.72098 23.8404 2.5837C23.9204 2.50038 24.0161 2.41755 24.0914 2.33273C24.2116 2.19971 24.3451 2.07824 24.4678 1.94949C24.5501 1.86341 24.6284 1.76503 24.7331 1.69451C24.8106 1.64255 24.8586 1.5527 24.9304 1.48645C25.0252 1.3976 25.1224 1.308 25.2092 1.21439C25.2925 1.1253 25.3896 1.04875 25.4664 0.95062C25.5365 0.861274 25.6323 0.790753 25.7079 0.701658C25.7792 0.618086 25.8568 0.540059 25.94 0.468252C26.024 0.393814 26.1037 0.314718 26.1787 0.231336C26.2462 0.158303 26.3732 0.195948 26.4437 0.293326C26.5276 0.409024 26.6418 0.494103 26.7389 0.594492C26.8644 0.724245 26.9899 0.85475 27.1153 0.982997C27.1997 1.06858 27.2868 1.15692 27.3769 1.23949C27.5039 1.35644 27.6369 1.47189 27.7453 1.6039C27.8236 1.69927 27.921 1.77356 28.0003 1.86667C28.0977 1.98061 28.2239 2.07447 28.3185 2.19444C28.3591 2.24534 28.4054 2.2914 28.4566 2.33172C28.5758 2.42709 28.6701 2.55182 28.7828 2.65096C28.8753 2.72962 28.9622 2.81466 29.0428 2.90545C29.16 3.04197 29.2973 3.15642 29.4178 3.28717C29.4951 3.37125 29.5779 3.45156 29.6595 3.53187C29.7599 3.63025 29.8703 3.71709 29.9531 3.83304C30.0056 3.90552 30.071 3.96778 30.1459 4.01675C30.2483 4.08476 30.3148 4.19042 30.4104 4.26772C30.5151 4.35255 30.5926 4.4685 30.7013 4.55383C30.7949 4.62736 30.8358 4.74959 30.942 4.82136C31.0642 4.90393 31.149 5.03494 31.2597 5.12931C31.4635 5.30273 31.6045 5.53513 31.8302 5.69149C31.9185 5.75273 31.9981 5.87068 32.0844 5.94673C32.2024 6.05038 32.2965 6.17511 32.4009 6.28629C32.51 6.40249 32.6418 6.49234 32.7485 6.61256C32.8286 6.70339 32.9156 6.78788 33.0087 6.86529C33.1141 6.95237 33.1912 7.07409 33.2933 7.17248C33.4123 7.28717 33.5486 7.38354 33.656 7.50852C33.7333 7.59837 33.8317 7.66864 33.9002 7.76301C34.0084 7.91083 34.1416 8.03281 34.2782 8.15001C34.3786 8.2366 34.4576 8.34752 34.5615 8.42357C34.6935 8.51994 34.7794 8.65522 34.885 8.76991C34.9907 8.88461 35.1187 8.986 35.2314 9.09467C35.403 9.26056 35.5536 9.44603 35.727 9.61042C35.9198 9.79338 36.1213 9.96981 36.2968 10.1761C36.4454 10.3549 36.6138 10.5164 36.7987 10.6575C36.8979 10.7335 36.985 10.824 37.0572 10.926C37.1445 11.0485 37.2813 11.1366 37.3729 11.2523C37.4733 11.3798 37.6068 11.4669 37.7178 11.5785C37.8857 11.7464 38.0375 11.9299 38.2107 12.0948C38.3399 12.2173 38.4965 12.3156 38.5984 12.4785C38.6534 12.5666 38.752 12.6499 38.8441 12.7237C38.9363 12.7975 39.0093 12.8861 39.0934 12.9667C39.2344 13.1017 39.3634 13.2485 39.506 13.3833C39.5941 13.4664 39.6796 13.5602 39.7657 13.6473C39.8518 13.7344 39.9193 13.8358 40.0252 13.8983C40.1028 13.9445 40.1507 14.0238 40.2084 14.0868C40.3957 14.289 40.5982 14.4765 40.79 14.6735C40.9154 14.801 41.0364 14.9343 41.1742 15.052C41.2696 15.1336 41.3499 15.2337 41.4575 15.3062C41.4665 15.3117 41.4741 15.3191 41.4796 15.328C41.4852 15.3369 41.4886 15.347 41.4895 15.3574C41.4905 15.3678 41.489 15.3784 41.4852 15.3881C41.4814 15.3979 41.4754 15.4066 41.4676 15.4136C41.2738 15.57 41.1162 15.7625 40.9368 15.9342C40.7915 16.0737 40.6474 16.2183 40.5084 16.3661C40.3866 16.4956 40.2561 16.6218 40.1224 16.7425C40.0355 16.8211 39.954 16.9253 39.8674 17.0046C39.7195 17.1403 39.5913 17.2952 39.4452 17.4312C39.3699 17.5015 39.2841 17.5662 39.2194 17.6556C39.15 17.7434 39.0708 17.8229 38.9832 17.8925C38.8946 17.9678 38.8326 18.0617 38.7473 18.1369C38.6469 18.2253 38.5568 18.3212 38.4659 18.418C38.3842 18.5075 38.2968 18.5918 38.2044 18.6703C38.0486 18.798 37.9198 18.9524 37.7805 19.0924C37.6495 19.2242 37.5004 19.3406 37.3847 19.494C37.269 19.6473 37.1152 19.77 36.9782 19.9068C36.8978 19.9874 36.8276 20.08 36.7357 20.1462C36.5713 20.2657 36.4624 20.4386 36.3063 20.5661C36.231 20.6278 36.1663 20.7069 36.095 20.7767C36.0019 20.868 35.9231 20.9719 35.8109 21.0452C35.7376 21.0929 35.6891 21.1737 35.6279 21.237C35.4593 21.4114 35.2818 21.5765 35.1137 21.7502C34.998 21.8699 34.8787 21.9901 34.7623 22.1113C34.6117 22.2702 34.4576 22.4293 34.29 22.5736C34.1665 22.68 34.0668 22.8141 33.9519 22.9313C33.854 23.0317 33.7484 23.1233 33.6482 23.2209C33.5335 23.3328 33.4223 23.4468 33.3079 23.5605C33.2037 23.6646 33.0976 23.7665 32.9964 23.8734C32.9277 23.9459 32.8514 24.0112 32.7841 24.0837C32.6426 24.2363 32.4907 24.3781 32.3437 24.5252C32.2684 24.6005 32.1986 24.6815 32.1241 24.7578C32.0284 24.8557 31.9333 24.9546 31.8329 25.0475C31.7074 25.1634 31.588 25.2854 31.471 25.4104C31.3777 25.5108 31.2775 25.6036 31.1806 25.7002C31.0599 25.8212 30.9417 25.9447 30.8182 26.0629C30.7224 26.155 30.6272 26.2471 30.5366 26.3447C30.432 26.4574 30.316 26.5596 30.2066 26.668C30.0972 26.7764 29.9847 26.8924 29.8738 27.0048C29.7965 27.0831 29.725 27.1687 29.6404 27.2384C29.4845 27.3672 29.3726 27.5396 29.2087 27.6608C29.1319 27.7178 29.0687 27.7939 29.0004 27.8616C28.7861 28.0712 28.5853 28.2935 28.3655 28.4991C28.2267 28.6286 28.0974 28.7752 27.9604 28.9107C27.8233 29.0462 27.6823 29.19 27.5428 29.327C27.3764 29.4904 27.2014 29.651 27.0526 29.837C26.9626 29.9436 26.8629 30.0414 26.7547 30.1294C26.6606 30.208 26.574 30.2951 26.4959 30.3897C26.4445 30.4532 26.3572 30.477 26.3203 30.5581C26.3102 30.5796 26.2655 30.5874 26.2417 30.5638C26.1047 30.4283 25.9704 30.2903 25.8344 30.154C25.6671 29.9867 25.4992 29.8194 25.3307 29.6521C25.1633 29.4849 25.0044 29.3082 24.8265 29.1526C24.6141 28.9661 24.4487 28.7352 24.2241 28.5583C24.1139 28.472 24.0136 28.352 23.9209 28.2343C23.8326 28.1221 23.7299 28.0102 23.6102 27.9367C23.5161 27.8789 23.4597 27.7906 23.3866 27.7221C23.2491 27.5938 23.1251 27.4475 22.9896 27.3142C22.7692 27.0977 22.5594 26.8703 22.3313 26.6617C22.1792 26.5232 22.0467 26.3658 21.8956 26.2258C21.7345 26.0767 21.5716 25.9208 21.4343 25.7419C21.3467 25.6282 21.2147 25.5484 21.1025 25.4538C21.1376 25.4074 21.1632 25.3441 21.2099 25.3168C21.3166 25.2543 21.3705 25.1466 21.4549 25.0658C21.5924 24.934 21.7141 24.7837 21.8627 24.667C21.9631 24.5879 22.0459 24.4913 22.1353 24.4052C22.2246 24.3191 22.3079 24.2208 22.3968 24.1314C22.5223 24.0059 22.6553 23.8895 22.7795 23.765C22.9208 23.6237 23.0616 23.4799 23.1966 23.3313C23.3417 23.1714 23.5184 23.0432 23.6539 22.8735C23.6737 22.8484 23.6948 22.806 23.7433 22.8264C23.7558 22.8831 23.7719 22.9323 23.8316 22.9649C23.9159 23.0108 23.9716 23.0904 24.0296 23.1657C24.0805 23.2361 24.1432 23.2972 24.2148 23.3464C24.3729 23.448 24.4763 23.6046 24.6111 23.7289C24.6972 23.8082 24.7813 23.9045 24.8654 23.9894C24.9908 24.1148 25.1274 24.2363 25.2494 24.3658C25.3894 24.5134 25.542 24.6484 25.679 24.7993C25.7438 24.8705 25.8025 24.9546 25.8841 25.0098C25.9695 25.071 26.0437 25.1466 26.1032 25.2332C26.2118 25.3823 26.3521 25.378 26.4628 25.2279C26.5393 25.131 26.6232 25.0403 26.7138 24.9564C26.7843 24.8863 26.8799 24.8356 26.9321 24.7556C27.0012 24.6492 27.1056 24.5799 27.1871 24.4901C27.2624 24.4082 27.3357 24.3201 27.4195 24.2441C27.5034 24.1681 27.5771 24.0782 27.6627 24.0107C27.7571 23.9324 27.8455 23.8471 27.9273 23.7557C28.0101 23.6679 28.1075 23.5911 28.1822 23.4904C28.2543 23.3975 28.3369 23.3132 28.4284 23.2395C28.516 23.1669 28.5813 23.0693 28.6686 23.0053C28.769 22.93 28.841 22.8296 28.9342 22.7498C29.0273 22.67 29.1131 22.5621 29.2067 22.4715C29.2777 22.4027 29.3606 22.343 29.4193 22.2652C29.4946 22.1648 29.595 22.094 29.6755 22.0002C29.741 21.9249 29.8289 21.8584 29.8939 21.7831C30.0246 21.6307 30.1797 21.504 30.3163 21.3579C30.4528 21.2119 30.5954 21.066 30.7397 20.925C30.8175 20.8497 30.8903 20.7639 30.9738 20.6991C31.0742 20.6238 31.1545 20.53 31.2401 20.4456C31.3955 20.2928 31.5413 20.1312 31.7009 19.9801C31.7674 19.9168 31.8535 19.8659 31.8999 19.7893C31.9662 19.6804 32.0839 19.628 32.1509 19.519C32.2094 19.4252 32.3075 19.3559 32.3883 19.2761C32.5284 19.1381 32.6815 19.0138 32.8082 18.8615C32.8782 18.7774 32.9616 18.7046 33.0389 18.6268C33.1352 18.5302 33.2301 18.4318 33.3285 18.3372C33.4459 18.224 33.5795 18.1236 33.6831 18.0002C33.8289 17.8285 33.9946 17.6767 34.1527 17.5188C34.2674 17.4044 34.3944 17.2947 34.5055 17.178C34.6561 17.0189 34.8158 16.8663 34.9671 16.7069C35.0848 16.5829 35.2291 16.481 35.337 16.3508C35.4781 16.1799 35.6442 16.0353 35.7968 15.8772C35.9424 15.7266 36.098 15.5851 36.2375 15.4285C36.2845 15.3763 36.2714 15.3464 36.2355 15.2954C36.1939 15.2362 36.1311 15.2046 36.0849 15.1509C35.9533 15.0027 35.8135 14.8619 35.6663 14.7292C35.5898 14.659 35.522 14.5807 35.4424 14.5127C35.3363 14.4221 35.2547 14.3031 35.1511 14.2087C35.0205 14.0903 34.9028 13.96 34.7781 13.8365C34.683 13.7424 34.5891 13.6476 34.4945 13.5534C34.3728 13.4325 34.2468 13.3163 34.1303 13.1895C34.0372 13.0891 33.9363 12.9943 33.839 12.8971C33.7607 12.8191 33.6831 12.7403 33.604 12.6632C33.4592 12.5222 33.3127 12.3832 33.1686 12.2416C33.0948 12.1688 33.0256 12.091 32.9528 12.0175C32.8413 11.9043 32.7297 11.7916 32.6162 11.6807C32.5136 11.5803 32.4061 11.4842 32.305 11.3818C32.2039 11.2794 32.1203 11.168 32.0151 11.0756C31.8896 10.9659 31.7777 10.8432 31.6592 10.7285C31.5009 10.5749 31.348 10.4113 31.1907 10.2557C31.0725 10.1387 30.9455 10.0253 30.8308 9.90581C30.6802 9.74845 30.5231 9.59636 30.372 9.43875C30.1981 9.25755 30.0179 9.08162 29.8347 8.9092C29.764 8.84347 29.697 8.77393 29.6339 8.70089C29.5049 8.54855 29.3493 8.4188 29.2055 8.27901C29.1306 8.21179 29.0597 8.1404 28.9929 8.06518C28.8651 7.90907 28.7063 7.78384 28.569 7.63853C28.4937 7.55746 28.4184 7.47113 28.3353 7.39358C28.1928 7.25981 28.0683 7.10547 27.9165 6.984C27.8213 6.9087 27.7408 6.81635 27.6585 6.73302C27.5136 6.5862 27.3711 6.43461 27.2238 6.29056C27.0983 6.16708 26.9643 6.04661 26.842 5.92037C26.6689 5.74168 26.4852 5.57253 26.3215 5.3843C26.3017 5.36146 26.2701 5.35518 26.2374 5.38831C26.0806 5.54768 25.9197 5.70278 25.7606 5.86039C25.5914 6.02905 25.418 6.19368 25.2561 6.36911C25.1487 6.48582 25.0242 6.58344 24.9188 6.70265C24.8415 6.79049 24.7529 6.8708 24.6709 6.95613C24.5612 7.06982 24.4502 7.18351 24.3303 7.28641C24.2299 7.37224 24.1378 7.46937 24.0482 7.56248C23.9749 7.63777 23.8891 7.7073 23.8223 7.79363C23.7381 7.90464 23.6415 8.00568 23.5344 8.0948C23.3559 8.24339 23.1887 8.40512 23.0342 8.57867C22.8438 8.78823 22.6242 8.96768 22.4409 9.18376C22.3388 9.30398 22.2151 9.40588 22.1021 9.51756C22.0236 9.59511 21.9473 9.67542 21.8695 9.75397C21.758 9.86641 21.6471 9.97985 21.5347 10.0903C21.4222 10.2007 21.3028 10.2978 21.2054 10.4165C21.108 10.5353 20.9795 10.6276 20.8764 10.7443C20.7866 10.851 20.6899 10.9516 20.5867 11.0455C20.4096 11.1973 20.254 11.3717 20.0815 11.5273C19.9116 11.6856 19.7516 11.8543 19.6027 12.0325C19.5444 12.1006 19.4802 12.1786 19.4054 12.2286C19.2332 12.3435 19.1251 12.5197 18.9705 12.6512C18.8269 12.7734 18.7142 12.931 18.5739 13.0575C18.3543 13.2553 18.1578 13.4744 17.9515 13.685C17.886 13.7515 17.8243 13.8308 17.753 13.8805C17.5831 13.9987 17.4694 14.1691 17.3183 14.3038C17.1672 14.4386 17.0357 14.5887 16.8899 14.727C16.7513 14.8585 16.6191 14.9968 16.4841 15.1318C16.4027 15.2134 16.3204 15.2939 16.2396 15.3763C16.1545 15.4631 16.0524 15.5399 15.9793 15.6272C15.8717 15.7582 15.7382 15.8636 15.6345 15.9992C15.58 16.0701 15.5164 16.1335 15.4453 16.1876C15.2841 16.3076 15.1692 16.4715 15.0211 16.6038C14.8796 16.7292 14.7481 16.8738 14.6158 17.0116C14.4266 17.2083 14.2218 17.3938 14.033 17.5928C13.9449 17.6854 13.8323 17.7492 13.7525 17.8458C13.6726 17.9424 13.5973 17.9595 13.5293 17.8541C13.4425 17.7191 13.2972 17.6503 13.1953 17.5278C13.0879 17.3996 12.9561 17.2909 12.8487 17.1561C12.7798 17.0655 12.6985 16.985 12.6073 16.917C12.3871 16.7631 12.2255 16.5538 12.0433 16.3648C11.9489 16.267 11.8566 16.1686 11.7542 16.0787C11.6445 15.9828 11.5406 15.8802 11.4385 15.7776C11.327 15.6644 11.2234 15.5434 11.1104 15.432C11.0665 15.3885 11.0753 15.3238 11.0971 15.313C11.1872 15.2691 11.2261 15.1777 11.2979 15.121C11.4568 14.9955 11.5768 14.8342 11.7246 14.6991C11.8629 14.5736 11.9873 14.4293 12.1206 14.2976C12.2712 14.1495 12.4077 13.9879 12.5663 13.8491C12.6416 13.7828 12.7094 13.7105 12.7789 13.6393C12.8816 13.5336 12.9865 13.4302 13.0904 13.3261C13.2033 13.2129 13.3163 13.0989 13.4297 12.9872C13.5301 12.8896 13.6405 12.8018 13.7326 12.6971C13.8516 12.5618 13.9783 12.4324 14.1038 12.3051C14.2597 12.147 14.4231 11.9959 14.5784 11.836C14.6424 11.7703 14.6954 11.6895 14.7709 11.6375C14.8773 11.5645 14.9466 11.4561 15.0447 11.3758C15.1268 11.3085 15.1981 11.2282 15.2749 11.1544C15.4172 11.0184 15.5444 10.8683 15.6907 10.7348C15.7911 10.6437 15.885 10.5428 15.9804 10.4457C16.0614 10.3628 16.1543 10.2911 16.2268 10.1987C16.2855 10.1234 16.3423 10.0378 16.4198 9.98813C16.5267 9.91987 16.5998 9.81822 16.6866 9.73465C16.7734 9.65107 16.8623 9.5788 16.9421 9.49347C17.0746 9.35309 17.2085 9.21438 17.3436 9.07735C17.428 8.99202 17.5141 8.89916 17.5984 8.81408C17.7374 8.67379 17.8684 8.52346 18.0165 8.39471C18.1094 8.3139 18.1789 8.21124 18.2833 8.14047C18.3616 8.08726 18.4161 7.99817 18.4811 7.92514C18.6342 7.80718 18.7481 7.64907 18.8907 7.52359C19.0445 7.38706 19.1793 7.23245 19.3309 7.09392C19.5249 6.91673 19.6925 6.71119 19.8858 6.53275C19.9591 6.46499 20.0113 6.37739 20.0931 6.32142C20.2437 6.21727 20.3496 6.06544 20.4806 5.9407C20.5664 5.85863 20.653 5.76678 20.7363 5.67894C20.8558 5.55421 20.9901 5.44553 21.0987 5.31252Z" fill="#058ED8"/>
<path d="M21.0986 5.31258C20.9899 5.4456 20.8556 5.55427 20.7384 5.67775C20.6551 5.76559 20.5685 5.85744 20.4827 5.93951C20.3517 6.065 20.2468 6.21558 20.0952 6.32023C20.0136 6.3762 19.9612 6.46379 19.8879 6.53156C19.6946 6.71 19.527 6.91554 19.333 7.09273C19.1824 7.23126 19.0466 7.38587 18.8928 7.52239C18.7502 7.64788 18.6363 7.80675 18.4832 7.92395C18.3931 7.86472 18.3763 7.74475 18.2914 7.68502C18.1772 7.60496 18.1027 7.48575 17.9983 7.40092C17.9022 7.32262 17.8404 7.21144 17.7318 7.14844C17.6444 7.09825 17.5694 7.03049 17.531 6.93662C17.5158 6.90432 17.4918 6.87699 17.4617 6.85782C17.3485 6.77676 17.2685 6.66507 17.1713 6.5697C17.0888 6.48889 17.0147 6.39402 16.9226 6.32927C16.8305 6.26452 16.7469 6.19876 16.6967 6.09511C16.6822 6.06575 16.6465 6.04668 16.6214 6.02284C16.5316 5.93926 16.4362 5.86071 16.3534 5.77061C16.2658 5.67125 16.1714 5.57801 16.0711 5.49153C15.9802 5.41624 15.919 5.32614 15.7985 5.47898C15.7257 5.57134 15.6173 5.65115 15.5342 5.74024C15.4512 5.82934 15.3638 5.91366 15.2815 5.99975C15.1992 6.08583 15.1342 6.1802 15.0418 6.24871C14.9495 6.31723 14.8842 6.41636 14.7951 6.48487C14.7019 6.56198 14.6151 6.64641 14.5353 6.73735C14.4538 6.82394 14.3672 6.91454 14.2844 6.99761C14.1589 7.12309 14.0219 7.24707 13.8974 7.37407C13.7556 7.52013 13.6015 7.65491 13.4672 7.8095C13.4105 7.87476 13.3392 7.93499 13.2749 7.99572C13.1982 8.068 13.1093 8.13527 13.0491 8.21985C12.977 8.32024 12.8797 8.39553 12.7981 8.48136C12.72 8.56418 12.6523 8.66281 12.5594 8.73007C12.4666 8.79733 12.4026 8.89973 12.3127 8.96749C12.2146 9.04279 12.1403 9.1389 12.0499 9.21972C11.9517 9.30718 11.8603 9.40208 11.7766 9.50357C11.7091 9.58563 11.6183 9.63834 11.5535 9.72593C11.4851 9.81741 11.4041 9.8987 11.3128 9.96736C11.2255 10.0324 11.1708 10.1222 11.0905 10.191C10.9936 10.2738 10.9035 10.3667 10.8124 10.4565C10.7286 10.5388 10.6367 10.6159 10.5639 10.7075C10.4886 10.8039 10.3882 10.8736 10.3129 10.9715C10.2422 11.058 10.1635 11.1376 10.0778 11.2092C9.9912 11.2857 9.91992 11.3791 9.83133 11.4481C9.73722 11.5239 9.65003 11.6079 9.57081 11.6991C9.45129 11.8351 9.3248 11.9649 9.19184 12.0878C9.0523 12.2151 8.91577 12.3498 8.78802 12.4841C8.64949 12.6284 8.51195 12.7798 8.36588 12.9123C8.22559 13.0393 8.09634 13.1791 7.96031 13.3091C7.79943 13.4627 7.64383 13.6233 7.48346 13.7794C7.4054 13.8547 7.31882 13.9282 7.25181 14.0145C7.17651 14.1117 7.0824 14.1902 7.00334 14.2818C6.93212 14.3683 6.85269 14.4476 6.76617 14.5187C6.67431 14.5913 6.60806 14.6897 6.51821 14.7574C6.43212 14.8229 6.37766 14.913 6.29635 14.981C6.18517 15.0741 6.09356 15.1898 5.98639 15.288C5.92239 15.3467 5.91963 15.4135 5.99543 15.4589C6.01626 15.4714 6.04562 15.4785 6.05667 15.4968C6.18466 15.7259 6.41681 15.8577 6.57643 16.0575C6.64922 16.1486 6.77445 16.2008 6.83494 16.2891C6.93859 16.4397 7.08215 16.5456 7.20237 16.6753C7.35295 16.8372 7.52863 16.98 7.67922 17.1381C7.83708 17.3015 8.00297 17.4604 8.15481 17.6316C8.22358 17.7086 8.28934 17.7997 8.38069 17.8537C8.54734 17.9525 8.6264 18.134 8.77397 18.2507C8.86893 18.3275 8.95527 18.4145 9.03147 18.51C9.14993 18.655 9.33264 18.7333 9.42876 18.9C9.44897 18.9314 9.47444 18.9592 9.50405 18.982C9.66292 19.1133 9.80322 19.2656 9.94351 19.4137C10.0655 19.5422 10.199 19.6597 10.3162 19.7939C10.4527 19.9508 10.6282 20.0735 10.765 20.2301C10.9376 20.4279 11.1379 20.597 11.3136 20.792C11.4893 20.9871 11.6926 21.1617 11.881 21.3497C12.0818 21.5505 12.2756 21.7618 12.4771 21.9636C12.6608 22.148 12.8536 22.323 13.0363 22.5089C13.1068 22.5807 13.1851 22.6452 13.2524 22.7183C13.3836 22.8613 13.5214 22.9968 13.6607 23.1314C13.747 23.2144 13.8309 23.3003 13.9149 23.3858C14.0424 23.5158 14.1642 23.6524 14.2984 23.7751C14.3893 23.8532 14.4751 23.937 14.5552 24.0261C14.6761 24.1701 14.8179 24.2921 14.9467 24.4256C15.0837 24.5674 15.2288 24.7057 15.3733 24.843C15.5357 24.9981 15.6886 25.164 15.8552 25.3161C15.917 25.3725 15.9526 25.371 16.0153 25.3161C16.1017 25.2393 16.1644 25.1379 16.247 25.0681C16.4167 24.9248 16.5577 24.7554 16.7203 24.6068C16.9284 24.4166 17.1284 24.2183 17.3242 24.0153C17.5483 23.7824 17.784 23.5608 18.0134 23.3329C18.1223 23.2247 18.2204 23.1045 18.3381 23.0066C18.4349 22.928 18.5253 22.8418 18.6084 22.7489C18.7994 22.531 19.0208 22.3453 19.213 22.13C19.3809 21.9418 19.5764 21.7786 19.7491 21.5942C19.9042 21.429 20.0623 21.2626 20.2244 21.109C20.3959 20.9466 20.567 20.7792 20.7372 20.6159C20.9914 20.3719 21.2324 20.1139 21.4848 19.866C21.8912 19.4694 22.2807 19.0558 22.693 18.6646C22.9761 18.396 23.2396 18.1046 23.5172 17.8283C23.8 17.5464 24.0824 17.2641 24.3645 16.9815C24.6499 16.6964 24.9297 16.4043 25.2226 16.1282C25.4866 15.8773 25.7311 15.6092 25.9964 15.36C26.2913 15.0827 26.5573 14.7737 26.8517 14.4936C27.0191 14.3343 27.1779 14.1674 27.3351 13.9965C27.4821 13.8364 27.651 13.6953 27.8064 13.5447C27.9617 13.3941 28.1224 13.2383 28.2657 13.0721C28.3382 12.9878 28.4323 12.9301 28.5016 12.8463C28.5362 12.8036 28.5884 12.7903 28.6228 12.8234C28.7508 12.9469 28.8678 13.0822 28.9963 13.2052C29.0653 13.2712 29.1167 13.354 29.1885 13.4127C29.2887 13.4986 29.3841 13.59 29.4744 13.6863C29.5429 13.7563 29.6081 13.8331 29.6832 13.8933C29.8408 14.0206 29.9567 14.1875 30.1128 14.3172C30.1899 14.3812 30.2574 14.4746 30.3327 14.5431C30.4833 14.6779 30.6201 14.8257 30.7614 14.9672C30.8459 15.0518 30.9471 15.1203 31.0196 15.2149C31.0655 15.2754 31.1875 15.3266 31.1155 15.4197C30.9935 15.5776 30.8314 15.7011 30.6981 15.8517C30.605 15.9571 30.4798 16.0349 30.3919 16.1438C30.3249 16.2269 30.2449 16.2979 30.1738 16.3744C30.028 16.531 29.8674 16.6756 29.7198 16.832C29.6563 16.8995 29.5858 16.9655 29.519 17.0327C29.3757 17.1738 29.2196 17.303 29.0854 17.4521C29.0148 17.5304 28.9393 17.6065 28.8663 17.6795C28.7674 17.7799 28.6564 17.8722 28.5651 17.9756C28.4547 18.0994 28.3299 18.209 28.2177 18.3303C28.1244 18.4306 28.0114 18.524 27.9148 18.6241C27.8004 18.7431 27.6889 18.8709 27.5697 18.981C27.4051 19.1334 27.248 19.2947 27.0886 19.4511C26.9724 19.5653 26.8582 19.689 26.7438 19.8067C26.6853 19.867 26.6276 19.9352 26.5628 19.9929C26.4571 20.0868 26.3422 20.1739 26.2541 20.2826C26.1495 20.4116 26.0282 20.5238 25.9118 20.639C25.7449 20.8043 25.5792 20.9715 25.4113 21.1359C25.3431 21.2024 25.2926 21.2882 25.2173 21.3417C25.1137 21.4155 25.0354 21.5131 24.9413 21.5959C24.8632 21.6652 24.803 21.7553 24.7227 21.8218C24.5668 21.95 24.4491 22.1152 24.2945 22.2462C24.2171 22.3169 24.1435 22.3918 24.0741 22.4705C23.963 22.589 23.8347 22.6917 23.7451 22.8307C23.6967 22.8104 23.6756 22.8533 23.6558 22.8779C23.5202 23.0475 23.3436 23.1758 23.1985 23.3357C23.0635 23.4842 22.9224 23.628 22.7814 23.7693C22.6559 23.8948 22.5229 24.0105 22.3986 24.1357C22.3098 24.2251 22.2265 24.3232 22.1371 24.4096C22.0478 24.4959 21.9652 24.5923 21.8646 24.6713C21.716 24.788 21.5943 24.9384 21.4567 25.0701C21.3724 25.1507 21.3184 25.2583 21.2118 25.3211C21.1651 25.3484 21.1395 25.4117 21.1044 25.4581C20.9866 25.5422 20.8986 25.6589 20.7911 25.7518C20.7113 25.8203 20.6486 25.9061 20.5695 25.9751C20.4765 26.0525 20.3919 26.1394 20.317 26.2344C20.2576 26.3137 20.1665 26.3684 20.0974 26.4419C20.0121 26.5325 19.9203 26.6176 19.8387 26.712C19.7633 26.8022 19.6799 26.8855 19.5895 26.9607C19.4916 27.0397 19.4155 27.1384 19.3222 27.2212C19.2439 27.2858 19.1729 27.3589 19.1106 27.439C19.0323 27.5482 18.9229 27.6335 18.8263 27.7254C18.7402 27.8072 18.6646 27.9033 18.5635 27.9744C18.4686 28.0409 18.4034 28.1483 18.3125 28.2231C18.2287 28.2926 18.1619 28.3789 18.0881 28.455C18.0033 28.5436 17.8992 28.6164 17.8296 28.7253C17.7794 28.8046 17.6846 28.8548 17.6151 28.9233C17.5262 29.0109 17.4376 29.099 17.3566 29.1941C17.2838 29.2802 17.1979 29.3572 17.1181 29.4378C16.9786 29.5781 16.8363 29.7156 16.6957 29.8551C16.6119 29.9385 16.5303 30.0308 16.4355 30.1061C16.3456 30.1787 16.2508 30.2607 16.1893 30.3553C16.1325 30.4424 16.0136 30.4592 15.9855 30.5689C15.9837 30.5764 15.8971 30.5754 15.8959 30.5689C15.8738 30.4557 15.7478 30.4434 15.6951 30.3538C15.6356 30.2534 15.5244 30.1852 15.4381 30.1006C15.3518 30.016 15.2624 29.9249 15.1763 29.8351C15.1063 29.762 15.0365 29.6893 14.9595 29.6225C14.8684 29.5434 14.7861 29.4543 14.7012 29.368C14.6164 29.2817 14.5293 29.1883 14.4427 29.099C14.37 29.0237 14.3019 28.9424 14.2209 28.8774C14.1227 28.7988 14.0495 28.6972 13.9526 28.6171C13.8621 28.5414 13.7782 28.4582 13.7016 28.3684C13.6223 28.2765 13.5294 28.198 13.4546 28.1021C13.3836 28.0113 13.288 27.9412 13.2052 27.8634C13.1181 27.7816 13.0458 27.682 12.9432 27.6125C12.8664 27.5608 12.8139 27.4759 12.7469 27.4087C12.654 27.3153 12.5514 27.2302 12.4651 27.1341C12.3837 27.044 12.2881 26.9687 12.2121 26.8731C12.136 26.7775 12.0429 26.7002 11.9568 26.6151C11.8845 26.5438 11.8119 26.473 11.739 26.4025C11.6471 26.3139 11.5633 26.2181 11.4644 26.1352C11.3816 26.0633 11.3038 25.9858 11.2315 25.9033C11.0922 25.748 10.9326 25.615 10.7928 25.4636C10.6703 25.3314 10.5418 25.2041 10.4189 25.0719C10.3245 24.9702 10.2116 24.8776 10.1177 24.7765C10.0469 24.7012 9.96108 24.6377 9.89357 24.5546C9.81765 24.4652 9.73473 24.3819 9.6456 24.3057C9.57232 24.2409 9.50481 24.1684 9.43579 24.0989C9.34293 24.005 9.23928 23.9204 9.15394 23.8228C9.07363 23.7312 8.974 23.6602 8.90071 23.561C8.83032 23.4708 8.75158 23.3875 8.66555 23.3121C8.57997 23.2333 8.50819 23.1364 8.41733 23.0699C8.31694 22.9968 8.25721 22.8869 8.14979 22.8234C8.07199 22.7772 8.02155 22.6924 7.96031 22.6277C7.80671 22.465 7.64634 22.3114 7.48346 22.1573C7.41569 22.0926 7.35245 22.0135 7.2882 21.9405C7.19151 21.837 7.08849 21.7396 6.97975 21.6489C6.91475 21.5911 6.85426 21.5234 6.79754 21.4629C6.6841 21.3437 6.56263 21.2292 6.45195 21.1063C6.35984 21.0041 6.23862 20.9145 6.15078 20.8121C6.02529 20.6686 5.87973 20.5473 5.75098 20.4091C5.61595 20.2637 5.46311 20.1265 5.32432 19.9844C5.19281 19.8501 5.05252 19.7209 4.92427 19.5829C4.78949 19.4368 4.63941 19.2985 4.49761 19.1585C4.38041 19.044 4.26169 18.9256 4.14976 18.8031C4.05615 18.7007 3.94622 18.6053 3.84683 18.5067C3.7733 18.4339 3.69625 18.3579 3.62572 18.2788C3.49221 18.1282 3.32456 18.0088 3.1938 17.8572C3.12403 17.7769 3.04622 17.7038 2.97344 17.6283C2.87606 17.5279 2.77592 17.4258 2.66801 17.3326C2.54252 17.225 2.44213 17.0902 2.32492 16.974C2.23173 16.8818 2.13903 16.7894 2.04684 16.6967C1.91968 16.5687 1.79177 16.4415 1.6631 16.3152C1.56497 16.2191 1.46709 16.1209 1.3657 16.0273C1.28952 15.9598 1.21839 15.8867 1.15287 15.8087C1.08034 15.7189 0.99049 15.6441 0.907669 15.5661C0.857435 15.5206 0.811404 15.4707 0.770135 15.417C0.702874 15.3226 0.821836 15.2744 0.868266 15.2137C0.940798 15.1193 1.04119 15.0501 1.12577 14.966C1.26782 14.8252 1.40435 14.6771 1.55443 14.5423C1.62972 14.4753 1.69724 14.3817 1.77403 14.3165C1.92964 14.1867 2.04559 14.0203 2.2032 13.8931C2.2752 13.8272 2.34309 13.757 2.40649 13.6828C2.4952 13.5854 2.59082 13.4946 2.6926 13.411C2.76363 13.3555 2.81382 13.2767 2.87958 13.2122C2.99026 13.104 3.11173 13.0011 3.20735 12.8834C3.32782 12.7353 3.48066 12.6239 3.60314 12.4786C3.72561 12.3333 3.86792 12.2065 4.00294 12.0728C4.12843 11.949 4.25592 11.8291 4.37564 11.7001C4.47151 11.5967 4.58319 11.5086 4.68383 11.4092C4.75913 11.3357 4.82413 11.2533 4.89716 11.1778C4.97471 11.098 5.05954 11.0272 5.13509 10.9439C5.21063 10.8606 5.29797 10.7798 5.37878 10.6967C5.47717 10.5963 5.58759 10.5062 5.68748 10.4063C5.80393 10.2896 5.9121 10.1646 6.02805 10.0474C6.12844 9.94703 6.23461 9.85393 6.33625 9.75554C6.41168 9.68759 6.48236 9.61455 6.54782 9.53695C6.61935 9.44559 6.71347 9.37934 6.78851 9.29125C6.8657 9.19954 6.95032 9.11434 7.04149 9.03651C7.1501 8.94667 7.25186 8.84885 7.34592 8.74387C7.4556 8.61839 7.57933 8.50696 7.69352 8.38749C7.79015 8.28711 7.89731 8.19124 7.99796 8.09361C8.0986 7.99598 8.20476 7.90111 8.29185 7.79093C8.38922 7.66771 8.51396 7.57259 8.62338 7.46291C8.69315 7.39289 8.77824 7.31935 8.84098 7.24984C8.93886 7.14116 9.04879 7.03802 9.14416 6.92558C9.23451 6.81917 9.35272 6.7248 9.45587 6.62291C9.53292 6.54762 9.61022 6.47032 9.68676 6.39352C9.82681 6.25273 9.96284 6.10917 10.1074 5.97189C10.1885 5.89409 10.2665 5.81352 10.3446 5.73296C10.4432 5.63132 10.5649 5.5495 10.6515 5.43933C10.7549 5.30706 10.8879 5.20718 10.9966 5.08194C11.0796 4.98572 11.1703 4.89634 11.2677 4.81465C11.3879 4.71426 11.4837 4.59028 11.5939 4.48161C11.7041 4.37294 11.8198 4.26829 11.9267 4.15535C12.0336 4.04241 12.1471 3.9355 12.2583 3.82658C12.3694 3.71766 12.4686 3.59393 12.5885 3.49555C12.6677 3.43133 12.7417 3.36101 12.8099 3.28523C12.9627 3.10955 13.1198 2.93262 13.2885 2.78078C13.4642 2.62342 13.6281 2.45225 13.8002 2.29314C13.9207 2.1817 14.0341 2.04994 14.1556 1.9345C14.3564 1.74275 14.5421 1.5347 14.7452 1.34396C14.8832 1.21421 15.0182 1.07442 15.149 0.933621C15.2561 0.817923 15.3761 0.71477 15.4833 0.597817C15.605 0.465053 15.7438 0.346847 15.8683 0.217094C15.9212 0.161629 15.9626 0.157865 16.0028 0.217094C16.0989 0.35789 16.2503 0.439454 16.3622 0.566446C16.5379 0.764714 16.7356 0.942908 16.9296 1.12311C17.0388 1.22525 17.1382 1.35525 17.2441 1.46744C17.3646 1.59468 17.4984 1.71188 17.6236 1.83612C17.714 1.92174 17.7996 2.0124 17.8798 2.10767C17.9398 2.18296 18.0194 2.23316 18.0836 2.30268C18.1885 2.41687 18.2917 2.54461 18.4132 2.6327C18.5713 2.74689 18.6804 2.90225 18.8182 3.031C18.9638 3.16728 19.1028 3.3171 19.2421 3.46191C19.3701 3.59493 19.5072 3.72569 19.6437 3.85368C19.7892 3.99147 19.9336 4.13502 20.0691 4.28561C20.1619 4.38901 20.2761 4.4781 20.374 4.5815C20.4812 4.69469 20.5999 4.79683 20.7076 4.90977C20.8152 5.02271 20.9194 5.15021 21.0514 5.23955C21.088 5.26189 21.088 5.28498 21.0986 5.31258Z" fill="#483E40"/>
<path d="M27.4538 11.6687C27.4264 11.6843 27.4224 11.7342 27.4152 11.7362C27.304 11.7666 27.2841 11.8888 27.1933 11.947C27.0993 12.012 27.0174 12.093 26.9513 12.1862C26.8866 12.2738 26.7927 12.3227 26.7297 12.4103C26.6544 12.515 26.5518 12.6036 26.4569 12.6912C26.3683 12.7732 26.293 12.8691 26.1962 12.9441C26.1041 13.0159 26.0383 13.1181 25.9412 13.1883C25.8511 13.2536 25.7891 13.3502 25.7093 13.428C25.6247 13.5108 25.5303 13.5899 25.4583 13.689C25.3941 13.7764 25.3077 13.8504 25.2287 13.9229C25.0758 14.0635 24.943 14.2241 24.7897 14.3594C24.7001 14.4389 24.6213 14.5315 24.5289 14.6103C24.4429 14.6831 24.3668 14.7813 24.2795 14.8566C24.1994 14.9256 24.1452 15.0154 24.0584 15.0804C23.9694 15.1516 23.8879 15.2318 23.8152 15.3196C23.7278 15.42 23.6182 15.497 23.5429 15.6029C23.4804 15.6905 23.3905 15.7465 23.3202 15.8243C23.2418 15.9167 23.1553 16.002 23.0617 16.079C22.9691 16.1506 22.8931 16.2432 22.8108 16.3257C22.7322 16.404 22.6481 16.4793 22.5761 16.5609C22.4955 16.652 22.3987 16.7255 22.3236 16.8222C22.2497 16.9138 22.1664 16.9973 22.0749 17.0714C21.9931 17.1396 21.9404 17.2313 21.8528 17.2935C21.7464 17.3688 21.6628 17.4752 21.571 17.5673C21.4871 17.6514 21.3953 17.7322 21.3185 17.8273C21.2457 17.9179 21.1478 17.9887 21.0733 18.0808C21.0032 18.1676 20.9121 18.2351 20.8336 18.3134C20.7498 18.397 20.6715 18.4911 20.5726 18.5644C20.486 18.6287 20.4112 18.715 20.3387 18.7946C20.1986 18.9476 20.0375 19.0797 19.9015 19.2325C19.7815 19.3673 19.6447 19.4852 19.528 19.6238C19.4527 19.7129 19.3491 19.7884 19.266 19.8722C19.1829 19.9561 19.0881 20.0359 19.0123 20.1315C18.9365 20.2271 18.8429 20.3039 18.7575 20.3895C18.6837 20.4648 18.6172 20.5466 18.5362 20.6116C18.4385 20.6902 18.367 20.7938 18.2664 20.8701C18.1798 20.9356 18.1062 21.0207 18.0327 21.1C17.8904 21.2506 17.7554 21.4079 17.59 21.5357C17.5748 21.5472 17.561 21.5604 17.5488 21.5751C17.4249 21.7304 17.3563 21.7312 17.2391 21.5846C17.1136 21.428 16.9588 21.3 16.8165 21.1597C16.6742 21.0194 16.5384 20.8686 16.3971 20.7253C16.2704 20.5968 16.1371 20.4743 16.0116 20.3448C15.8633 20.1915 15.7089 20.0436 15.5619 19.8888C15.4432 19.7633 15.2966 19.6614 15.1992 19.5176C15.1074 19.3823 14.9435 19.3284 14.8601 19.1846C14.8303 19.1344 14.8099 19.1133 14.8571 19.0636C15.0667 18.8377 15.2901 18.6244 15.5079 18.4061C15.6495 18.2643 15.7875 18.1159 15.928 17.9726C16.0631 17.8351 16.2041 17.7026 16.3404 17.5643C16.4767 17.426 16.6099 17.284 16.7522 17.1542C16.8893 17.0287 17.0032 16.8824 17.1475 16.7662C17.2324 16.6984 17.3031 16.6129 17.3799 16.5353C17.5835 16.3298 17.7863 16.1237 17.9951 15.9234C18.1374 15.7867 18.2586 15.6268 18.4069 15.4968C18.5467 15.3751 18.6627 15.2315 18.8025 15.11C18.9498 14.9823 19.0825 14.8377 19.2203 14.6989C19.3581 14.5602 19.4879 14.4241 19.6219 14.2874C19.7669 14.1398 19.912 13.9922 20.0586 13.8459C20.1886 13.7161 20.3206 13.5881 20.4516 13.4591C20.5954 13.3173 20.7397 13.176 20.882 13.0325C20.9518 12.9622 21.011 12.8799 21.0863 12.8172C21.1889 12.7285 21.2844 12.632 21.3719 12.5285C21.4352 12.4565 21.51 12.396 21.5787 12.3303C21.7328 12.1827 21.8847 12.0339 22.0252 11.8737C22.0875 11.8065 22.1535 11.7428 22.2227 11.6828C22.3846 11.5339 22.5309 11.3716 22.6845 11.216C22.8128 11.0859 22.9523 10.9677 23.0821 10.8395C23.1825 10.7391 23.2731 10.6307 23.3725 10.5303C23.5009 10.4003 23.637 10.2776 23.7642 10.1468C23.9085 9.99849 24.0611 9.8592 24.2002 9.7056C24.3282 9.5699 24.463 9.44074 24.604 9.3186C24.6557 9.27192 24.6956 9.21495 24.7455 9.16651C24.8489 9.06613 24.9084 9.0975 24.987 9.1901C25.0655 9.28271 25.1664 9.36177 25.2485 9.45463C25.3341 9.5515 25.4294 9.6411 25.5193 9.7307C25.5911 9.80248 25.6616 9.88705 25.7514 9.94929C25.8413 10.0115 25.9038 10.1182 25.9859 10.197C26.0571 10.2653 26.1249 10.3363 26.1942 10.4061C26.3603 10.573 26.5282 10.7381 26.6933 10.906C26.8083 11.023 26.9333 11.1354 27.0507 11.2508C27.1511 11.349 27.2646 11.4376 27.3419 11.5595C27.368 11.6029 27.438 11.608 27.4538 11.6687Z" fill="#483E40"/>
</svg>
