<svg width="18" height="18" viewBox="0 0 18 18" fill="none" xmlns="http://www.w3.org/2000/svg">
<path fill-rule="evenodd" clip-rule="evenodd" d="M17.0303 1.14376C17.2341 1.34749 17.3031 1.64992 17.2079 1.92186L11.9579 16.9219C11.8563 17.2121 11.5878 17.4109 11.2806 17.4235C10.9733 17.436 10.6895 17.2597 10.5646 16.9787L7.6818 10.4923L1.1954 7.60945C0.91439 7.48456 0.738092 7.20078 0.750627 6.89352C0.763163 6.58626 0.961991 6.31779 1.25224 6.2162L16.2522 0.966199C16.5242 0.87102 16.8266 0.940035 17.0303 1.14376ZM9.14456 10.0902L11.1671 14.6408L14.7064 4.52836L9.14456 10.0902ZM13.6457 3.4677L3.53331 7.00705L8.0839 9.02953L13.6457 3.4677Z" fill="#483E40"/>
</svg>
